<?xml version="1.0" standalone="no"?>
<!DOCTYPE svg PUBLIC "-//W3C//DTD SVG 20010904//EN"
 "http://www.w3.org/TR/2001/REC-SVG-20010904/DTD/svg10.dtd">
<svg version="1.0" xmlns="http://www.w3.org/2000/svg"
 width="1205.000000pt" height="366.000000pt" viewBox="0 0 1205.000000 366.000000"
 preserveAspectRatio="xMidYMid meet">
<metadata>
Created by potrace 1.15, written by Peter Selinger 2001-2017
</metadata>
<g transform="translate(0.000000,366.000000) scale(0.100000,-0.100000)"
fill="#0107ff" stroke="none">
<path d="M11094 3357 c-204 -134 -340 -230 -342 -241 -6 -29 7 -65 26 -75 10
-5 92 -23 182 -40 117 -22 169 -36 183 -49 18 -18 16 -28 -62 -423 -87 -438
-133 -691 -207 -1122 -27 -158 -52 -276 -57 -274 -6 2 -56 183 -112 403 -56
219 -108 410 -114 424 -7 14 -24 34 -39 45 -25 18 -43 20 -212 20 -201 0 -219
-4 -255 -59 -9 -13 -60 -200 -115 -417 -114 -448 -108 -425 -120 -413 -4 5
-47 259 -94 564 -48 305 -91 559 -97 565 -6 6 -89 11 -209 13 l-199 3 -16 -24
c-14 -23 -8 -67 115 -733 110 -594 136 -717 158 -757 49 -91 93 -107 302 -107
151 0 158 1 211 28 85 43 95 67 199 472 50 195 96 373 101 395 8 28 13 35 19
25 4 -8 47 -168 94 -355 107 -418 119 -457 159 -497 59 -59 94 -68 267 -68 85
0 172 5 193 11 56 15 113 77 131 141 23 78 153 864 246 1488 48 316 88 554 96
568 18 28 25 28 220 -9 173 -32 192 -31 214 12 6 11 8 29 4 41 -5 18 -370 533
-446 631 -22 27 -37 37 -58 37 -20 0 -127 -65 -366 -223z"/>
<path d="M700 2333 c-84 -22 -235 -97 -303 -150 -112 -87 -162 -146 -221 -262
-85 -166 -96 -219 -96 -445 0 -228 9 -275 86 -432 88 -179 204 -278 424 -360
71 -26 85 -28 275 -32 230 -4 312 9 453 73 112 51 115 61 72 233 l-32 133 -54
27 -55 26 -82 -29 c-74 -27 -94 -30 -207 -30 -116 0 -129 2 -180 28 -221 109
-296 397 -170 648 73 144 228 213 425 188 50 -6 111 -20 137 -31 54 -23 94
-20 145 11 28 17 36 34 67 133 20 62 36 131 36 151 0 37 -1 39 -67 68 -126 58
-195 69 -407 68 -135 -1 -207 -5 -246 -16z"/>
<path d="M2305 2303 c-62 -14 -150 -48 -200 -78 -32 -19 -59 -35 -61 -35 -2 0
-4 15 -4 34 0 61 -18 66 -231 66 -167 0 -188 -2 -202 -18 -16 -17 -17 -87 -17
-795 l0 -776 22 -15 c18 -13 57 -16 215 -16 187 0 192 1 207 22 14 20 16 92
16 580 l0 557 28 15 c68 35 178 65 268 75 136 15 134 12 134 200 0 184 -4 192
-93 190 -34 -1 -71 -3 -82 -6z"/>
<path d="M3371 2270 c-40 -11 -111 -40 -157 -64 l-84 -45 0 35 c0 21 -8 42
-20 54 -19 19 -33 20 -203 20 -165 0 -186 -2 -200 -18 -16 -17 -17 -87 -17
-795 l0 -776 22 -15 c34 -24 399 -23 419 1 11 13 15 124 19 592 l5 575 70 29
c134 56 234 46 271 -29 18 -37 19 -72 24 -597 5 -538 6 -559 24 -573 16 -11
62 -14 211 -14 174 0 193 2 209 18 15 17 16 71 16 603 l-1 584 53 18 c29 11
87 21 129 24 90 7 134 -10 164 -60 19 -31 20 -56 22 -572 2 -297 5 -550 8
-562 12 -51 22 -53 230 -53 l194 0 20 26 c21 26 21 36 21 529 0 547 -7 667
-47 788 -66 199 -190 285 -423 295 -144 5 -252 -18 -387 -84 l-93 -46 -33 32
c-17 18 -61 46 -97 63 -59 28 -75 31 -180 34 -91 2 -131 -1 -189 -17z"/>
<path d="M7485 2283 c-62 -14 -150 -48 -200 -78 -32 -19 -59 -35 -61 -35 -2 0
-4 15 -4 34 0 61 -18 66 -231 66 -167 0 -188 -2 -202 -18 -16 -17 -17 -87 -17
-795 l0 -776 22 -15 c18 -13 57 -16 215 -16 187 0 192 1 207 22 14 20 16 92
16 580 l0 557 28 15 c68 35 178 65 268 75 136 15 134 12 134 200 0 184 -4 192
-93 190 -34 -1 -71 -3 -82 -6z"/>
<path d="M8242 2276 c-85 -16 -205 -71 -278 -126 -115 -86 -199 -241 -230
-422 -22 -127 -15 -511 11 -608 63 -238 221 -402 450 -466 88 -25 328 -30 425
-10 110 23 242 92 315 165 97 96 145 190 182 354 22 102 23 492 0 593 -61 272
-214 440 -462 509 -82 23 -316 29 -413 11z m295 -406 c53 -23 96 -82 118 -163
14 -52 16 -98 13 -277 -3 -200 -5 -219 -27 -267 -58 -130 -195 -179 -322 -115
-42 21 -61 39 -86 80 -46 77 -56 154 -51 372 4 159 8 193 26 240 54 137 190
191 329 130z"/>
<path d="M5613 2259 c-209 -20 -372 -100 -463 -226 -117 -164 -116 -459 3
-613 l32 -42 -32 -36 c-58 -63 -78 -117 -78 -207 1 -96 26 -163 85 -220 l39
-39 -45 -48 c-89 -96 -127 -223 -105 -357 29 -181 152 -297 378 -359 94 -25
108 -26 348 -26 237 0 255 1 346 26 158 43 255 102 314 192 46 69 65 140 65
247 0 148 -41 234 -143 300 -103 67 -231 106 -652 199 -181 40 -234 55 -247
71 -23 27 -23 51 0 78 17 22 18 22 77 6 130 -34 395 -29 548 11 157 40 273
127 332 247 62 128 71 295 22 415 l-24 60 61 23 61 24 3 119 c2 111 1 121 -19
143 l-22 23 -401 -1 c-221 -1 -438 -5 -483 -10z m297 -354 c81 -41 104 -82
103 -187 0 -92 -23 -137 -87 -171 -35 -19 -57 -22 -156 -22 -104 0 -119 2
-160 25 -60 33 -90 92 -90 175 1 108 47 170 146 194 59 15 203 7 244 -14z
m-181 -1200 c171 -38 253 -68 285 -103 15 -17 18 -32 14 -72 -10 -98 -68 -125
-268 -125 -218 0 -270 31 -270 159 0 102 31 192 63 181 6 -2 86 -20 176 -40z"/>
</g>
</svg>
