<svg xmlns="http://www.w3.org/2000/svg" xmlns:xlink="http://www.w3.org/1999/xlink" preserveAspectRatio="xMidYMid" width="11.38" height="11.1" viewBox="0 0 11.38 11.1">
  <defs>
    <style>
      .cls-1 {
        fill: #fff;
        fill-rule: evenodd;
      }
    </style>
  </defs>
  <path d="M4.837,0.733 C4.593,0.975 4.598,1.368 4.847,1.604 L7.907,4.519 L0.609,4.519 C0.272,4.519 -0.000,4.791 -0.000,5.129 L-0.000,5.941 C-0.000,6.279 0.272,6.550 0.609,6.550 L7.907,6.550 L4.847,9.465 C4.601,9.701 4.596,10.095 4.837,10.336 L5.400,10.900 C5.637,11.139 6.023,11.139 6.261,10.900 L11.197,5.964 C11.436,5.728 11.436,5.342 11.197,5.103 L6.261,0.170 C6.025,-0.069 5.639,-0.069 5.400,0.170 L4.837,0.733 Z" class="cls-1"/>
</svg>
