<svg xmlns="http://www.w3.org/2000/svg" xmlns:xlink="http://www.w3.org/1999/xlink" preserveAspectRatio="xMidYMid" width="30.001" height="17.68" viewBox="0 0 30.001 17.68">
  <defs>
    <style>
      .cls-1 {
        fill: #fefefe;
        fill-rule: evenodd;
      }
    </style>
  </defs>
  <path d="M1.244,7.590 L25.697,7.590 L20.384,2.199 C19.759,1.626 19.746,1.041 20.345,0.441 C20.943,-0.157 21.529,-0.144 22.103,0.480 L29.603,7.980 C29.759,8.085 29.863,8.215 29.916,8.371 C29.967,8.527 29.994,8.683 29.994,8.840 C29.994,8.996 29.967,9.152 29.916,9.308 C29.863,9.465 29.759,9.596 29.603,9.699 L22.103,17.199 C21.529,17.824 20.943,17.838 20.345,17.238 C19.746,16.640 19.759,16.054 20.384,15.480 L25.697,10.090 L1.244,10.090 C0.879,10.090 0.580,9.973 0.345,9.738 C0.111,9.504 -0.006,9.205 -0.006,8.840 C-0.006,8.476 -0.006,8.293 -0.006,8.293 C-0.006,8.293 0.111,8.176 0.345,7.941 C0.580,7.707 0.879,7.590 1.244,7.590 L1.244,7.590 Z" class="cls-1"/>
</svg>
