<svg xmlns="http://www.w3.org/2000/svg" xmlns:xlink="http://www.w3.org/1999/xlink" preserveAspectRatio="xMidYMid" width="30" height="17.68" viewBox="0 0 30 17.68">
  <defs>
    <style>
      .cls-1 {
        fill: #737cf6;
        fill-rule: evenodd;
      }
    </style>
  </defs>
  <path d="M-0.006,8.840 C-0.006,8.683 0.019,8.527 0.072,8.371 C0.123,8.215 0.228,8.085 0.384,7.980 L7.884,0.480 C8.457,-0.144 9.043,-0.157 9.642,0.441 C10.240,1.041 10.228,1.626 9.603,2.199 L4.291,7.590 L28.744,7.590 C29.107,7.590 29.408,7.707 29.642,7.941 C29.877,8.176 29.994,8.476 29.994,8.840 C29.994,9.205 29.877,9.504 29.642,9.738 C29.408,9.973 29.107,10.090 28.744,10.090 L4.291,10.090 L9.603,15.480 C10.228,16.054 10.240,16.640 9.642,17.238 C9.043,17.838 8.457,17.824 7.884,17.199 L0.384,9.699 C0.228,9.596 0.123,9.465 0.072,9.308 C0.019,9.152 -0.006,8.996 -0.006,8.840 L-0.006,8.840 Z" class="cls-1"/>
</svg>
