<?xml version="1.0" encoding="iso-8859-1"?>
<!-- Generator: Adobe Illustrator 17.0.0, SVG Export Plug-In . SVG Version: 6.00 Build 0)  -->
<!DOCTYPE svg PUBLIC "-//W3C//DTD SVG 1.1//EN" "http://www.w3.org/Graphics/SVG/1.1/DTD/svg11.dtd">
<svg version="1.1" xmlns="http://www.w3.org/2000/svg" xmlns:xlink="http://www.w3.org/1999/xlink" x="0px" y="0px" width="95px"
	 height="83.182px" viewBox="0 0 95 83.182" style="enable-background:new 0 0 95 83.182;" xml:space="preserve">
<g id="Layer_1">
</g>
<g id="Layer_2">
	<g>
		<path style="fill:#F4F7FC;" d="M79.824,20.009c9.023,11.496,30.686,39.959-13.36,56.488s-73.663-7.043-62.12-42.258
			S55.165-11.41,79.824,20.009z"/>
		<path style="fill:#CAD1DB;" d="M36.589,15.927c-2.066,0-3.917,1.308-4.605,3.256c-0.225,0.636,0.107,1.333,0.744,1.558
			c0.417,0.15,0.853,0.037,1.175-0.229l5.127,6.157v1.466c0,0.674,0.546,1.221,1.221,1.221c0.674,0,1.221-0.546,1.221-1.221v-7.325
			C41.472,18.118,39.282,15.927,36.589,15.927L36.589,15.927z M36.589,15.927"/>
		<path style="fill:#9599A7;" d="M32.926,18.369c-2.238,0-4.352,0.859-6.001,2.469L11.271,37.926l1.8,1.649l0.423-0.462
			l25.536,7.002v0.335c0,0.674,0.546,1.221,1.221,1.221c0.674,0,1.221-0.546,1.221-1.221V26.915
			C41.472,22.203,37.638,18.369,32.926,18.369L32.926,18.369z M32.926,18.369"/>
		<path style="fill:#CAD1DB;" d="M56.123,15.927c2.065,0,3.917,1.308,4.604,3.256c0.226,0.636-0.107,1.333-0.744,1.558
			c-0.417,0.15-0.854,0.037-1.174-0.229l-5.128,6.157v1.466c0,0.674-0.546,1.221-1.221,1.221c-0.675,0-1.221-0.546-1.221-1.221
			v-7.325C51.239,18.118,53.429,15.927,56.123,15.927L56.123,15.927z M56.123,15.927"/>
		<path style="fill:#9599A7;" d="M59.786,18.369c2.238,0,4.353,0.859,6.002,2.469l15.653,17.089l-1.8,1.648l-0.423-0.462
			l-25.536,7.002v0.335c0,0.674-0.546,1.221-1.221,1.221c-0.675,0-1.221-0.546-1.221-1.221V26.915
			C51.239,22.203,55.074,18.369,59.786,18.369L59.786,18.369z M59.786,18.369"/>
		<path style="fill:#6C99FE;" d="M37.81,48.891c0,7.417-6.013,13.429-13.429,13.429c-7.418,0-13.43-6.013-13.43-13.429
			c0-7.417,6.013-13.43,13.43-13.43C31.797,35.461,37.81,41.474,37.81,48.891L37.81,48.891z M37.81,48.891"/>
		<path style="fill:#2D3B5B;" d="M24.38,31.798c-9.425,0-17.093,7.668-17.093,17.093c0,9.425,7.668,17.092,17.093,17.092
			c9.425,0,17.092-7.667,17.092-17.092C41.472,39.466,33.805,31.798,24.38,31.798L24.38,31.798z M24.38,61.1
			c-6.732,0-12.209-5.477-12.209-12.209c0-6.732,5.477-12.209,12.209-12.209c6.732,0,12.209,5.477,12.209,12.209
			C36.589,55.623,31.112,61.1,24.38,61.1L24.38,61.1z M24.38,61.1"/>
		<path style="fill:#2D3B5B;" d="M36.589,33.02h19.534l0.188-0.003c-2.376,2.327-3.85,5.571-3.85,9.16v4.273H40.252v-4.273
			c0-3.589-1.475-6.833-3.85-9.16"/>
		<path style="fill:#FFFFFF;" d="M31.705,45.606c0,2.231-1.809,4.041-4.041,4.041c-2.231,0-4.04-1.81-4.04-4.041
			c0-2.231,1.809-4.041,4.04-4.041C29.896,41.565,31.705,43.375,31.705,45.606L31.705,45.606z M31.705,45.606"/>
		<path style="fill:#00A9E0;" d="M81.761,48.891c0,7.417-6.013,13.429-13.429,13.429s-13.429-6.013-13.429-13.429
			c0-7.417,6.013-13.43,13.429-13.43S81.761,41.474,81.761,48.891L81.761,48.891z M81.761,48.891"/>
		<path style="fill:#6C99FE;" d="M81.761,48.891c0,7.417-6.013,13.429-13.429,13.429s-13.429-6.013-13.429-13.429
			c0-7.417,6.013-13.43,13.429-13.43S81.761,41.474,81.761,48.891L81.761,48.891z M81.761,48.891"/>
		<path style="fill:#2D3B5B;" d="M68.332,31.798c-9.425,0-17.093,7.668-17.093,17.093c0,9.425,7.668,17.092,17.093,17.092
			s17.093-7.667,17.093-17.092C85.425,39.466,77.757,31.798,68.332,31.798L68.332,31.798z M68.332,61.1
			c-6.732,0-12.209-5.477-12.209-12.209c0-6.732,5.477-12.209,12.209-12.209s12.209,5.477,12.209,12.209
			C80.541,55.623,75.064,61.1,68.332,61.1L68.332,61.1z M68.332,61.1"/>
		<path style="fill:#FFFFFF;" d="M75.657,45.644c0,2.252-1.826,4.079-4.078,4.079c-2.253,0-4.079-1.827-4.079-4.079
			c0-2.252,1.826-4.079,4.079-4.079C73.831,41.565,75.657,43.392,75.657,45.644L75.657,45.644z M75.657,45.644"/>
		<rect x="36.589" y="30.578" style="fill:#9599A7;" width="19.534" height="2.442"/>
	</g>
</g>
</svg>
