<?xml version="1.0" encoding="iso-8859-1"?>
<!-- Generator: Adobe Illustrator 17.0.0, SVG Export Plug-In . SVG Version: 6.00 Build 0)  -->
<!DOCTYPE svg PUBLIC "-//W3C//DTD SVG 1.1//EN" "http://www.w3.org/Graphics/SVG/1.1/DTD/svg11.dtd">
<svg version="1.1" xmlns="http://www.w3.org/2000/svg" xmlns:xlink="http://www.w3.org/1999/xlink" x="0px" y="0px" width="18.5px"
	 height="18px" viewBox="0 0 18.5 18" style="enable-background:new 0 0 18.5 18;" xml:space="preserve">
<g id="Layer_1">
</g>
<g id="Layer_2">
	<g>
		<g>
			<path style="fill:#1BA57A;" d="M17,3.47L9.17,16.02c-0.03,0.07-0.08,0.14-0.13,0.19c-0.03,0.03-0.1,0.09-0.22,0.17
				c-0.17,0.12-0.32,0.19-0.48,0.23l-0.13,0.02v-0.01c-0.05,0.02-0.11,0.03-0.17,0.03c-0.06,0-0.12-0.01-0.18-0.02h-0.3L7.43,16.5
				H7.27l-0.15-0.14l0.27-0.44l-0.35,0.36L2.25,11.6c-0.28-0.23-0.44-0.57-0.46-0.96c-0.02-0.4,0.11-0.76,0.38-1.05
				c0.53-0.57,1.4-0.58,1.98-0.08L7.71,13l6.93-11.08c0.23-0.32,0.52-0.51,0.89-0.6c0.38-0.08,0.74-0.01,1.06,0.2
				c0.31,0.2,0.52,0.51,0.6,0.88C17.27,2.77,17.21,3.14,17,3.47z"/>
		</g>
	</g>
</g>
</svg>
