<?xml version="1.0" encoding="utf-8"?>
<!-- Generator: Adobe Illustrator 23.0.4, SVG Export Plug-In . SVG Version: 6.00 Build 0)  -->
<svg version="1.1" id="Layer_1" xmlns="http://www.w3.org/2000/svg" xmlns:xlink="http://www.w3.org/1999/xlink" x="0px" y="0px"
	 viewBox="0 0 584.78 387.21" style="enable-background:new 0 0 584.78 387.21;" xml:space="preserve">
<style type="text/css">
	.st0{fill:#C0E0FF;}
	.st1{fill:#EBF3FF;}
	.st2{fill:#ABD1FF;}
	.st3{fill:#EAF3FF;}
	.st4{fill:#181863;}
	.st5{fill:#4A75FF;}
	.st6{fill:#FFFFFF;}
	.st7{fill:#F3AA06;}
	.st8{fill:none;stroke:#2094F1;stroke-width:0.1616;stroke-miterlimit:10;}
	.st9{fill:#FFBF0D;}
	.st10{fill:#FECE40;}
	.st11{fill:#161711;}
	.st12{fill:#E9D6B8;}
	.st13{fill:#D1DBEA;}
	.st14{fill:#B0BFDE;}
	.st15{fill:#194866;}
	.st16{fill:#163F59;}
	.st17{fill:#E2C59C;}
	.st18{fill:#DBDAC6;}
	.st19{fill:#FF5931;}
	.st20{fill:#C9C8B6;}
	.st21{fill:none;stroke:#FFFFFF;stroke-width:2.0769;}
</style>
<path class="st0" d="M292.93,318.25c16.61-9.87,5.17-15.1-9.09-16.44c7.92-7.56,4.62-15.89-11.3-26.43
	c-7.15-4.74-16.72-3.41-26.48,0.82c-5.07-16.89-13.22-28.91-24.93-24c-9.69,4.06-17.15,9.39-22.14,15.38
	c-2.65-1.62-5.52-3.19-8.62-4.68c-6.74-3.25-12.21-1.81-16.54,2.45c-12.65-11.05-25.95-18.12-35.01-12.28
	c-15.74,10.17-18.85,19.83-10.7,30.51c-14.3-0.86-25.67,3.55-8.72,18.61c-16.63-3.87-28.95-2.99-23.22,9.82
	c12.77,28.57,87.98,40.73,146.06,34.13c35.98,1.34,66.66-3.47,74.07-16.56C321.77,319.94,309.45,317.47,292.93,318.25z"/>
<g>
	<g>
		<path class="st1" d="M473.05,1.14c-70.37-9.39-135.26,40.23-144.63,110.59c-9.39,70.34,40.22,135.22,110.57,144.62
			c70.37,9.37,135.26-40.22,144.65-110.58C593.02,75.42,543.4,10.52,473.05,1.14z"/>
	</g>
	<g>
		<path class="st2" d="M583.01,109.08l-13.31,18.37l-23.44,35.08l-8.73-24.92l-19.06,9.47l-9.02-22.67l-11.7,11.4l-4.89-1.93
			l-15.37-8.44l0.92,17.3l11.78,6.55l-28.63,50.33l-10.34,4.85l-6.12-20.89l-1.37-33.87l-16.21-2.84l-5.39-13.19l12.49-24.1
			l14.05-1.39l7.73,6.69l20.7-2.24L456.65,97.6l-18-5.6l-0.23-5.67l19.12-7.92l-6.01-12.61l20.19-13.96l18.33,9.29l33.26-5.74
			c0,0,13.98-5.22,29.62-10.94C568.61,62.51,579.24,84.84,583.01,109.08z"/>
		<path class="st2" d="M389.1,18.98l-8.93,11.57L364.5,51.9c-0.41,0.59-0.5,1.34-0.2,1.99l6.97,15.32c0.29,0.62,1.06,1.09,1.57,1.14
			c0.68,0.07,1.35-0.19,1.78-0.72l9.07-11.28l12.62,20.29l-32.59,22.17l-16.7-0.63c-0.77-0.04-1.48,0.4-1.84,1.08l-4.87,9.63
			c-0.3,0.61-0.29,1.31,0.05,1.9l9.17,15.5l-16.7-10.54l-4.24-6.8C334.12,71.33,357.31,38.38,389.1,18.98z"/>
		<path class="st2" d="M364.77,174.45l-8.38-23.47l15.28-24.96l30.47,35.93l-37.12,56.12l-4.17-14.4l4-28.27
			C364.91,175.07,364.88,174.76,364.77,174.45z"/>
		<path class="st2" d="M410.04,57.99l-10.41-32c22.21-7.82,36.49-8.34,41.94-8.15l-9.84,26.93L410.04,57.99z"/>
	</g>
</g>
<path class="st0" d="M540.81,278.64c22.98-13.65,7.15-20.88-12.57-22.73c10.95-10.45,6.39-21.97-15.63-36.55
	c-9.89-6.55-23.13-4.72-36.62,1.14c-7.01-23.36-18.28-39.98-34.48-33.19c-13.4,5.61-23.72,12.99-30.61,21.27
	c-3.66-2.24-7.63-4.41-11.92-6.47c-9.32-4.49-16.88-2.51-22.87,3.39c-17.49-15.28-35.89-25.06-48.41-16.98
	c-21.77,14.06-26.07,27.42-14.8,42.2c-19.77-1.2-35.5,4.91-12.07,25.74c-22.99-5.35-40.03-4.14-32.11,13.58
	c17.66,39.51,121.67,56.33,201.98,47.2c49.76,1.85,92.18-4.8,102.43-22.91C580.69,280.98,563.66,277.56,540.81,278.64z"/>
<path class="st3" d="M130.15,322.75c40.62-2.17,166.48-9.49,242.73-18.86c141.39-17.38,257.62-3.11,182.19,21.79
	c-21.08,6.96,41.17,40.87-108.6,55.3c-131.47,12.67-266.1,2.75-331.24-1.2c-65.14-3.96-95.43-14.5-109.49-19.24
	C-6.62,356.37-11.84,330.33,130.15,322.75z"/>
<g>
	<g>
		<path class="st4" d="M356.85,209.44c0,0,2.77-4.93,1.78-10.18c-0.36-1.9-2.57-4.88-4.55-4.51c-1.98,0.37-3.12,3.09-2.6,5.86
			C352.47,205.86,356.85,209.44,356.85,209.44z"/>
		<path class="st4" d="M357.86,218.31c0,0-1.52-4.71-5.46-7.09c-1.43-0.86-4.65-1.12-5.57,0.42c-0.92,1.53,0.14,3.87,2.22,5.13
			C352.98,219.14,357.86,218.31,357.86,218.31z"/>
		<path class="st4" d="M361.02,228.23c0,0-3.31-3.68-7.88-4.25c-1.66-0.2-4.7,0.88-4.92,2.65c-0.22,1.77,1.71,3.48,4.12,3.78
			C356.91,230.97,361.02,228.23,361.02,228.23z"/>
		<path class="st4" d="M358.04,218.52c0,0,4.5-0.89,7.67-4.23c1.15-1.21,2.28-4.12,1.21-5.13c-1.06-1.01-3.38-0.28-5.05,1.48
			C358.69,213.99,358.04,218.52,358.04,218.52z"/>
		<path class="st4" d="M360.38,228.41c0,0,4.61-0.78,7.78-4.12c1.15-1.21,2.22-4.17,1.1-5.23c-1.12-1.06-3.49-0.39-5.17,1.37
			C360.92,223.77,360.38,228.41,360.38,228.41z"/>
		<path class="st4" d="M366.05,241.22c0,0,4-0.14,6.42-2.69c0.88-0.93,1.48-3.39,0.36-4.45c-1.12-1.07-3.15-0.75-4.42,0.59
			C365.98,237.23,366.05,241.22,366.05,241.22z"/>
		<path class="st4" d="M365.51,241.39c0,0-2.3-3.05-5.9-4.06c-1.31-0.37-3.84,0-4.18,1.24c-0.35,1.23,1.03,2.7,2.93,3.23
			C361.97,242.81,365.51,241.39,365.51,241.39z"/>
	</g>
	<g>
		<path class="st4" d="M377.13,296.69c-0.99,0.63-1.79,0.74-1.85,0.74l-0.11-0.93l0.06,0.46l-0.06-0.46
			c0.09-0.01,2.19-0.32,3.69-3.12c1.68-3.14,1.93-8.02,0.73-14.51c-1.64-8.9-5.99-20.59-12.94-34.74
			c-8.07-16.44-9.24-26.34-10.02-32.9c-0.2-1.68-0.37-3.13-0.63-4.35l0.92-0.19c0.27,1.25,0.44,2.72,0.64,4.43
			c0.77,6.49,1.93,16.3,9.93,32.6c15.47,31.51,15.15,44.67,12.16,50.16C378.88,295.31,377.94,296.17,377.13,296.69z"/>
	</g>
</g>
<g>
	<path class="st5" d="M49.36,92.08c0,1.85-1.5,3.35-3.36,3.35l-2.24,0l0,7.83l-7.82-7.83l-25.72-0.01c-1.85,0-3.36-1.5-3.35-3.36
		l0.01-27.95c0-1.85,1.5-3.36,3.36-3.35l35.78,0.01c1.85,0,3.35,1.5,3.35,3.35L49.36,92.08z"/>
	<rect x="13.59" y="70.83" class="st6" width="29.07" height="2.24"/>
	<rect x="13.59" y="76.42" class="st6" width="29.07" height="2.24"/>
	<rect x="13.58" y="82.01" class="st6" width="29.07" height="2.24"/>
</g>
<g>
	<path class="st7" d="M411.97,230.38L337.23,159c-0.71-0.79-1.48-1.51-2.3-2.2l-0.73-0.7c0,0-0.03,0.01-0.08,0.03
		c-3.53-2.64-7.85-4.25-12.59-4.25c-4.74,0-9.07,1.61-12.59,4.25c-0.05-0.02-0.08-0.03-0.08-0.03l-0.74,0.7
		c-0.82,0.68-1.59,1.4-2.3,2.2l-74.75,71.38c-1.65,1.66-2.47,3.82-2.47,5.99v84.46c0,7,5.67,12.67,12.67,12.67h160.51
		c7,0,12.67-5.67,12.67-12.67v-84.46C414.44,234.2,413.62,232.04,411.97,230.38z"/>
	<path class="st8" d="M363.76,253.25c0,23.33-18.91,42.24-42.24,42.24c-23.33,0-42.24-18.91-42.24-42.24
		c0-23.32,18.91-42.24,42.24-42.24C344.85,211.01,363.76,229.92,363.76,253.25z"/>
	<path class="st1" d="M401.77,308.16v-97.15l-46.46-46.46H253.94c-7,0-12.67,5.67-12.67,12.67v130.94H401.77z"/>
	<path class="st9" d="M401.77,333.5H241.27c-7,0-12.67-5.67-12.67-12.67v-84.48L401.77,333.5z"/>
	<path class="st10" d="M241.27,333.5h160.51c7,0,12.67-5.67,12.67-12.67v-84.48L241.27,333.5z"/>
	<path class="st5" d="M355.31,164.55v33.79c0,6.99,5.68,12.67,12.67,12.67h33.79L355.31,164.55z"/>
	<rect x="271.18" y="219.46" class="st0" width="102.75" height="8.45"/>
	<rect x="271.18" y="236.35" class="st0" width="65.58" height="8.45"/>
	<rect x="271.18" y="202.56" class="st0" width="39.69" height="8.45"/>
</g>
<g>
	<path class="st9" d="M88.54,81.32c-1.68,0-3.04-1.36-3.04-3.04V51.94c0-1.68,1.36-3.04,3.04-3.04h38.5c1.68,0,3.04,1.36,3.04,3.04
		v26.34c0,1.68-1.36,3.04-3.04,3.04H88.54z"/>
	<path class="st9" d="M88.54,81.32c-1.68,0-3.04-1.36-3.04-3.04V51.94c0-1.68,1.36-3.04,3.04-3.04h38.5c1.68,0,3.04,1.36,3.04,3.04
		v26.34c0,1.68-1.36,3.04-3.04,3.04H88.54z"/>
	<path class="st7" d="M127.03,48.9h-38.5c-1.68,0-3.04,1.36-3.04,3.04v1.59l35.36,27.79h6.17c1.68,0,3.04-1.36,3.04-3.04V51.94
		C130.07,50.26,128.71,48.9,127.03,48.9z"/>
	<path class="st10" d="M107.78,69.16l22.29-15.5v-1.72c0-1.68-1.36-3.04-3.04-3.04h-38.5c-1.68,0-3.04,1.36-3.04,3.04v1.72
		L107.78,69.16z"/>
</g>
<g>
	<path class="st9" d="M44.02,144.11c-0.97,0-1.76-0.79-1.76-1.76v-15.26c0-0.97,0.79-1.76,1.76-1.76h22.31
		c0.97,0,1.76,0.79,1.76,1.76v15.26c0,0.97-0.79,1.76-1.76,1.76H44.02z"/>
	<path class="st9" d="M44.02,144.11c-0.97,0-1.76-0.79-1.76-1.76v-15.26c0-0.97,0.79-1.76,1.76-1.76h22.31
		c0.97,0,1.76,0.79,1.76,1.76v15.26c0,0.97-0.79,1.76-1.76,1.76H44.02z"/>
	<path class="st7" d="M66.32,125.32H44.02c-0.97,0-1.76,0.79-1.76,1.76v0.92l20.49,16.1h3.58c0.97,0,1.76-0.79,1.76-1.76v-15.26
		C68.08,126.11,67.29,125.32,66.32,125.32z"/>
	<path class="st10" d="M55.17,137.06l12.91-8.98v-1c0-0.97-0.79-1.76-1.76-1.76H44.02c-0.97,0-1.76,0.79-1.76,1.76v1L55.17,137.06z"
		/>
</g>
<g>
	<path class="st9" d="M138.37,177.54c-2.97,0-5.38-2.41-5.38-5.38v-46.65c0-2.97,2.41-5.38,5.38-5.38h68.18
		c2.97,0,5.38,2.41,5.38,5.38v46.65c0,2.97-2.41,5.38-5.38,5.38H138.37z"/>
	<path class="st9" d="M138.37,177.54c-2.97,0-5.38-2.41-5.38-5.38v-46.65c0-2.97,2.41-5.38,5.38-5.38h68.18
		c2.97,0,5.38,2.41,5.38,5.38v46.65c0,2.97-2.41,5.38-5.38,5.38H138.37z"/>
	<path class="st7" d="M206.54,120.13h-68.18c-2.97,0-5.38,2.41-5.38,5.38v2.82l62.63,49.21h10.93c2.97,0,5.38-2.41,5.38-5.38v-46.65
		C211.93,122.54,209.52,120.13,206.54,120.13z"/>
	<path class="st10" d="M172.46,156.01l39.47-27.46v-3.04c0-2.97-2.41-5.38-5.38-5.38h-68.18c-2.97,0-5.38,2.41-5.38,5.38v3.04
		L172.46,156.01z"/>
</g>
<g>
	<path class="st11" d="M177.45,336.45c-0.29,0.35-0.08,1.26-0.08,1.26s5.01,0.56,6.62,0.18c0.42-0.1,1.12-0.46,1.79-0.84
		c0.11-0.06,0.31-0.45,0.42-0.51c0.2-0.12,0.31,0.08,0.48-0.03c0.45-0.28,0.76-0.5,0.77-0.53c0.44-2.3-0.15-3.22-0.15-3.22
		s-4.26-1.42-5.06-0.43C180.35,334.65,178.07,335.69,177.45,336.45z"/>
	<path class="st11" d="M210.46,334.39l0.71,3.73h3.8c0,0,0.21-0.53,0.53-0.53c0.27,0,0.62,0.53,0.99,0.53c0.8,0,1.69,0,2.04,0
		c0.71,0,7.63,0,7.63,0s0.17-0.78-0.04-1.05c-0.11-0.14-0.74-0.38-1.17-0.5c-1.97-0.55-7.59-2.28-8.56-4.15
		C215.21,330.12,210.46,334.39,210.46,334.39z"/>
	<path class="st12" d="M185.23,174.39c0.33,1.32-0.14,2.56-1.03,2.78l0,0c-0.89,0.22-1.88-0.66-2.21-1.98l-0.41-1.65
		c-0.33-1.31,0.13-2.56,1.03-2.78l0,0c0.9-0.22,1.89,0.66,2.21,1.98L185.23,174.39z"/>
	<g>
		<path class="st12" d="M227.11,230.06l10.59,14.88l4.3,0.07c0,0,0.01-0.24-0.92-0.73c-0.26-0.14-1.6-0.01-1.81-0.26
			c-0.28-0.33-1.63-0.77-1.72-1.36c-0.58-4.25-0.63-10.7-2.8-15.04C231.25,220.64,226.83,229.89,227.11,230.06z"/>
		<path class="st13" d="M202.4,189.82c0,0,6.66,2.42,19.31,17.08c13.09,15.16,11.23,16.13,11.23,16.13l1.88,4.14l-6.54,5.02
			l-21.21-24.21L202.4,189.82z"/>
		<path class="st14" d="M201.16,201.4l15.04,16.46l6.03,5.46l-1.87-3.19c0,0-1.31-1.89-8.43-11.11c-4.01-5.2-5.97-6.99-8.63-9.37
			L201.16,201.4z"/>
		<polygon class="st14" points="231.33,225.12 226.99,228.04 225.99,228.92 228.23,232 232.35,227.68 		"/>
	</g>
	<path class="st12" d="M193.46,186.69c-0.2,2.37-1.47,4.42-2.81,4.52c-1.27,0-2.54,0-3.81,0c-1.34-0.1-2.61-2.15-2.81-4.52
		c-0.31-3.9-0.63-7.81-0.94-11.71c-0.21-2.34,0.71-7.04,2.74-8.43c1.85-1.24,3.98-1.24,5.83,0c2.03,1.39,2.94,6.09,2.73,8.43
		C194.08,178.88,193.77,182.79,193.46,186.69z"/>
	<path class="st12" d="M167.67,226l10.19,16.56c0,0-15.15-7.28-14.37-14.05C164.27,221.74,167.67,226,167.67,226z"/>
	<path class="st13" d="M203.39,190.39c-1.2-1.97-8.58-2.71-8.58-2.71l-5.95,1.78l-7.35-0.84l-8.16,4.04c0,0-3.59,2.98-0.19,14.28
		c3.4,11.29,2.09,24.34,2.09,24.34l29.41,1.86C204.66,233.14,206.98,196.29,203.39,190.39z"/>
	<path class="st13" d="M178.65,192.63c0,0-4.44-2.51-8.88,3.01c-7.57,9.41-11.23,21.08-12.02,23.34c-0.79,2.26-1.83,9.04,1.3,11.04
		c3.14,2.01,3.14,2.01,3.14,2.01l6.53-4.01l-1.05-2.01l-0.52-1.25c0,0,3.66-8.03,7.58-15.31
		C178.65,202.16,178.65,192.63,178.65,192.63z"/>
	<path class="st12" d="M195.44,180.67c-0.61,2.21-1.52,2.73-3.13,2.98c-1.54,0.15-1.91,0.31-3.44,0.46
		c-1.62,0.08-3.28-2.07-3.66-4.04c-0.6-3.25-2.37-5.91-2.98-9.16c-0.39-1.95,0.44-3.69,2.81-5.1c2.17-1.26,4.74-3.84,7.05-3.02
		c2.53,0.92,3.91,4.77,3.8,6.76C195.74,172.86,195.59,177.35,195.44,180.67z"/>
	<polygon class="st14" points="187.42,189.2 184.51,192.37 181.6,188.19 183.35,185.61 	"/>
	<polygon class="st14" points="193.8,185.86 188.21,189.46 190.85,192.63 195.21,187.68 	"/>
	
		<rect x="187.78" y="189.44" transform="matrix(0.9993 -0.0384 0.0384 0.9993 -7.9439 7.4059)" class="st14" width="2.48" height="42.55"/>
	<path class="st15" d="M187.34,244.8c0,0,6.09,32.09,13.4,43.66c7.32,11.58,11.17-2.13,11.17-2.13l-7.25-54.18l-22.99-0.13
		C181.67,232.03,183.86,232.43,187.34,244.8z"/>
	<path class="st15" d="M195.78,232.16c0,0-7.02,51.22-7.9,53.88c-2.96,9.02-8.82,2.19-9.87-0.81c-1.05-3.01-2.79-22.41-2.44-38.64
		c0.35-16.23,0.35-15.17,0.35-15.17L195.78,232.16z"/>
	<path class="st15" d="M187.42,276.27c0,0,1.15,12.28,2.2,21.27c0.77,6.61-0.28,21.86-1.5,34.97c-0.08,0.8-6.62,0.2-6.62,0.2
		s-2.98-34.54-3.83-42.74C174.01,255,182.19,270.4,187.42,276.27z"/>
	<path class="st16" d="M209.74,287.51c0,0-1.83,0.7-7.66,0.91c-5.81,0.21,7.75,46.42,7.75,46.42l8.24-3.55l-6.39-46.19
		L209.74,287.51z"/>
	<path class="st16" d="M181.05,168.37l1.18,2.53c0,0,2.51-2.83,4.28-5.15c0.56-0.73,6.29-0.79,7.71-0.54
		c1.03,0.18,1.16,1.51,1.39,2.28c0.85,2.76-0.36-4.64-0.36-4.64s-1.94-3.48-5.59-3.77c-2.01-0.16-2.95,1.01-3.71,2.53
		c-0.18,0.36,2.22-0.58,1.8-0.63c-0.11-0.01-2.46,2.06-2.54,2.21c-0.36,0.79-0.74,1.58-1.26,2.27
		C182.02,168.07,181.05,168.37,181.05,168.37z"/>
	<polygon class="st17" points="189.62,169.88 191.2,170.1 190.77,171.06 192.03,171.53 193.26,176.39 191.18,176.54 190.86,173.57 
		189.61,172.08 186.42,171.78 	"/>
	<polygon class="st13" points="162.04,230.76 167.67,226 169.88,229.01 164.36,233.51 	"/>
	<path class="st12" d="M243.63,242.34c1.23,0.71,3.59,1.75,2.79,2.22l-4.3-1.7l-2.27,0.05l-1.32,1.27l-0.85-1.27
		c-0.57-0.14-0.98-0.3-0.71-1.23l-0.38-0.52c1.7-0.33,2.41-0.52,2.93-0.42l2.12,0.57C242.27,241.44,243.63,242.34,243.63,242.34z"/>
</g>
<g>
	<g>
		<path class="st12" d="M87.38,231.15c0,0-1.52-0.46,0.67-8.67c2.2-8.21,7.28-19.78,7.28-19.78l-3.47,19.38
			C91.87,222.08,90.22,229.44,87.38,231.15z"/>
		<path class="st12" d="M93.06,209.02c0.94-3.94-0.45-6.04-0.64-7.73c-0.18-1.69-0.66-3.45-0.65-3.44c1.32,1.23,1.07,2.51,1.41,3.26
			c0.34,0.75,0.13,0.53,0.56-0.85c0.24-0.78-0.7-2.48-1.17-3.65c-0.4-1.01-0.32-1.57-0.32-1.57s1.05,1.32,1.78,2.85
			c0.88,1.86,1.47,4.04,1.53,4.54c0.1,0.91-0.44,3.56-1.12,5.38C93.67,209.87,92.38,211.85,93.06,209.02z"/>
		<path class="st12" d="M95.43,202.62c0,0,0.02-3.17-0.21-3.78c-0.17-0.43-1.27-2.31-1.27-2.31s-0.1,1.17,0.3,1.94
			C94.65,199.26,95.43,202.62,95.43,202.62z"/>
	</g>
	<path class="st18" d="M93.35,212.98c0.02,4.1-1.3,10.31-3.82,16.95c-0.3,0.78-0.6,1.55-0.91,2.29c-0.48,1.14-2.46-0.43-2.36-2.53
		c0.2-4.06,1.81-8.74,4.1-14.76c0.39-1.03,0.8-2.03,1.21-3C92.18,212.23,92.77,212.58,93.35,212.98z"/>
	<g>
		<path class="st2" d="M75.78,188.35c-0.38,1.26,0.33,2.59,1.58,2.97l9.87,3.01l-2.78,9.11l20.25-3.79l15.94,4.87
			c1.26,0.39,2.59-0.32,2.97-1.58l15.77-51.71c0.38-1.26-0.32-2.59-1.58-2.97l-43.28-13.21c-1.26-0.38-2.59,0.33-2.97,1.58
			L75.78,188.35z"/>
		<g>
			<g>
				<g>
					
						<rect x="112.85" y="188.15" transform="matrix(0.2915 -0.9566 0.9566 0.2915 -100.3799 243.6771)" class="st6" width="2.9" height="2.9"/>
					<path class="st6" d="M115.75,192.31l-4.16-1.27l1.27-4.16l4.16,1.27L115.75,192.31z M113.4,190.08l1.39,0.42l0.42-1.39
						l-1.39-0.42L113.4,190.08z"/>
				</g>
				<g>
					<polygon class="st6" points="112.47,194.88 111.79,193.6 114.24,192.3 114.57,191.2 115.96,191.62 115.45,193.29 					"/>
				</g>
				<g>
					
						<rect x="107.31" y="186.46" transform="matrix(0.2923 -0.9563 0.9563 0.2923 -102.7328 236.9905)" class="st6" width="2.9" height="2.9"/>
					<path class="st6" d="M110.2,190.62l-4.16-1.27l1.27-4.16l4.16,1.27L110.2,190.62z M107.85,188.39l1.39,0.42l0.42-1.39
						l-1.39-0.42L107.85,188.39z"/>
				</g>
				<g>
					<polygon class="st6" points="106.92,193.19 106.24,191.91 108.69,190.6 109.03,189.5 110.42,189.93 109.9,191.6 					"/>
				</g>
			</g>
			<g>
				<g>
					
						<rect x="98.48" y="149.15" transform="matrix(0.292 -0.9564 0.9564 0.292 -73.2901 202.1908)" class="st6" width="2.9" height="2.9"/>
					<path class="st6" d="M101.37,153.31l-4.16-1.27l1.27-4.16l4.16,1.27L101.37,153.31z M99.02,151.08l1.39,0.42l0.42-1.39
						l-1.39-0.42L99.02,151.08z"/>
				</g>
				<g>
					<polygon class="st6" points="99.66,149 98.27,148.58 98.78,146.9 101.76,145.32 102.44,146.6 99.99,147.9 					"/>
				</g>
				<g>
					
						<rect x="104.02" y="150.84" transform="matrix(0.2917 -0.9565 0.9565 0.2917 -70.9623 208.7545)" class="st6" width="2.9" height="2.9"/>
					<path class="st6" d="M106.92,155.01l-4.16-1.27l1.27-4.16l4.16,1.27L106.92,155.01z M104.57,152.77l1.39,0.43l0.42-1.39
						l-1.39-0.42L104.57,152.77z"/>
				</g>
				<g>
					<polygon class="st6" points="105.2,150.69 103.82,150.27 104.33,148.6 107.31,147.01 107.99,148.29 105.54,149.59 					"/>
				</g>
			</g>
			<g>
				<g>
					
						<rect x="108.38" y="148.01" transform="matrix(0.2918 -0.9565 0.9565 0.2918 -78.399 219.6046)" class="st6" width="1.45" height="29.48"/>
				</g>
				<g>
					
						<rect x="107.27" y="151.65" transform="matrix(0.2918 -0.9565 0.9565 0.2918 -82.6635 221.1367)" class="st6" width="1.45" height="29.48"/>
				</g>
				<g>
					
						<rect x="106.16" y="155.29" transform="matrix(0.2919 -0.9565 0.9565 0.2919 -86.9372 222.6332)" class="st6" width="1.45" height="29.48"/>
				</g>
				<g>
					
						<rect x="105.05" y="158.93" transform="matrix(0.2918 -0.9565 0.9565 0.2918 -91.2023 224.1629)" class="st6" width="1.45" height="29.48"/>
				</g>
				<g>
					
						<rect x="96.08" y="168.39" transform="matrix(0.2918 -0.9565 0.9565 0.2918 -98.7433 216.4588)" class="st6" width="1.45" height="13.05"/>
				</g>
			</g>
		</g>
	</g>
	<g>
		<g>
			<path class="st19" d="M80.93,200.79c0.26,4.2-2.94,7.82-7.15,8.07l-2.12-3.5c-4.2,0.25-7.99-5.87-8.25-10.07l-0.17-2.85
				c-0.26-4.2,2.94-7.81,7.15-8.07l1.9-0.11c4.2-0.25,7.82,2.95,8.07,7.15L80.93,200.79z"/>
			<path class="st19" d="M64.46,192.25c-0.42,0.03-0.82,0.08-1.22,0.16c0.11,0.5,0.2,1,0.23,1.53c0.31,5.06-3.32,9.47-8.29,10.37
				c1.04,4.69,5.44,8.07,10.49,7.76c5.59-0.34,9.85-5.05,9.52-10.52C74.84,196.07,70.04,191.91,64.46,192.25z"/>
			<path class="st12" d="M77.03,186.86c0.03,0.7,0.02,1.42-0.05,2.15c-0.47,4.93-3.22,8.82-6.43,9.48c0.03,2.22-0.29,4.24-0.72,5.96
				c-0.49,1.96-2.62,4.14-2.62,4.14c-0.34,3.45,11.57,7.75,11.26,7.22c-0.31-0.53-3.41-4.38-4.58-8.01c-0.81-2.53-0.1-4.7,0.8-6.22
				c1.69-2.25,4.32-2.38,4.32-2.38c0.25-0.01,0.47-0.14,0.63-0.32c0.12-0.51,0.17-1.05,0.14-1.61L79.39,191
				C79.29,189.26,78.37,187.77,77.03,186.86z"/>
			<path class="st18" d="M74.4,236.14c-1.29,3.15-8.21,3.15-9.49,0l-7.25-19.83c-1.8-4.44,5.1-6.6,8.61-8.47l2.52-0.19l3.68,1.77
				l1.75-1.89l3.45,0.12c3,0,4.41,2.58,3.12,5.73L74.4,236.14z"/>
			<path class="st18" d="M81.02,209.72l7.3,22c0,0,0.5,1.52-1.03,0.52c-2.15-1.41-6.98-6.54-11.27-16.75
				C72.87,208,79.08,209.3,81.02,209.72z"/>
			<path class="st12" d="M82.67,293.29c-0.34-1.22-0.59-2.46-0.89-3.66c-1.19-1.88-2.28-2.93-3.16-2.93
				c-3.34-0.02-5.12,11.42,1.72,33.23c0.38,1.22,6.37,23.15,6.38,22.27C86.86,324.46,83.91,297.72,82.67,293.29z"/>
			<path class="st12" d="M62.18,293.53c0.27-1.24,0.63-2.45,0.92-3.66c-0.18-2.21-0.65-3.65-1.43-4.07
				c-2.95-1.58-9.86,7.71-13.97,30.2c-0.23,1.25-5.16,23.45-4.74,22.67C51.35,323.06,61.21,298.03,62.18,293.53z"/>
			<polygon class="st20" points="73.57,208.79 72.23,211.48 67.09,207.88 68.79,206.16 			"/>
			<polygon class="st20" points="73.89,206.79 73.57,208.79 74.94,210.85 74.73,207.93 			"/>
			<path class="st15" d="M84.25,299.68c0.15-0.75,0.23-1.6,0.24-2.51c-0.18-5.1,0.03-10.28-0.8-19.97
				c-0.81-9.41-2.66-23.33-6.65-39.43c-0.38-1.64-0.86-3.06-1.4-4.21c-3.62-0.5-7.3,1.96-11.05,3.02c-1.37,2.56-2.57,5.62-3.41,9.31
				c-4.08,16.67-6.12,26.3-7.19,34.39c-1.09,7.84-1.22,14.12-1.78,18.3C62.56,315.81,73.23,283.74,84.25,299.68z"/>
		</g>
		<path class="st12" d="M97.27,342.09c0,0-1.21-0.01-4.29,0.65c-1.8,0.38-3.06,0.93-3.92,0.55c-1.42-0.62-2.5-6.84-2.7-11.36
			c-0.02-0.51-3.09-1.69-2.95-1.13c1.84,7.3,1.95,11.92,2.13,12.94c0.3,1.72,1.09,3.28,1.93,3.34c1.66,0.11,9.31-3.39,9.93-3.71
			C98.02,343.04,97.41,341.86,97.27,342.09z"/>
		<path class="st15" d="M39.49,343.38c-0.72,4.39-0.37,8.1,0.79,8.29c1.16,0.19,2.69-3.21,3.41-7.6c0.73-4.39,0.37-8.1-0.79-8.29
			C41.74,335.59,40.21,338.99,39.49,343.38z"/>
		<path class="st12" d="M40.38,341.11c-1,3.13-0.57,6.21,0.59,6.4c1.16,0.19,2.41-2.21,2.8-5.46c0.49-4.12,0.24-5.85,1.57-8.1
			c1.38-2.31,1.58-4.61,1.28-4.96c-0.3-0.35-1.86,0.52-2.06,1.72c-0.29,1.72-1.05,3.24-1.34,3.71
			C42.38,335.74,41.42,337.86,40.38,341.11z"/>
		<path class="st15" d="M95.44,342.27c1.22,1.67-4.78,3.31-6.45,3.45c-1.6,0.13-2.56,0.36-2.56,0.36c-0.06,0.03-0.12,0.04-0.18,0.06
			c0.01,0.05,0.02,0.1,0.03,0.14c0.43,1.02,0.55,2.56,2.18,1.88l10.2-4.29C106.99,340.36,95.41,342.23,95.44,342.27z"/>
	</g>
	<g>
		<path class="st5" d="M98.85,243.94c0.28-1.19-0.45-2.38-1.64-2.66l-9.31-2.22l2.05-8.6l-14.95,5.52l-46.57-11.11
			c-1.18-0.28-2.38,0.45-2.66,1.64l-5.98,25.07c-0.28,1.19,0.45,2.38,1.64,2.66l68.78,16.4c1.19,0.28,2.38-0.45,2.66-1.64
			L98.85,243.94z"/>
		<g>
			<line class="st21" x1="50.75" y1="242.15" x2="91.23" y2="251.8"/>
			<line class="st21" x1="49.54" y1="247.2" x2="80.66" y2="254.62"/>
		</g>
		<path class="st6" d="M42.44,248l0.19-0.81c0.19-0.79-0.3-1.59-1.09-1.78l-5.01-1.19c-0.79-0.19-1.59,0.3-1.77,1.09l-1.02,4.3
			c-0.19,0.79,0.3,1.59,1.09,1.78l5.01,1.2c0.79,0.19,1.59-0.3,1.78-1.09l0.19-0.81l1.81,1.94l1.32-5.54L42.44,248z"/>
		<g>
			<path class="st6" d="M34.88,240.04c-1.78-0.42-2.88-2.22-2.45-4c0.43-1.78,2.22-2.88,3.99-2.45c1.78,0.42,2.88,2.21,2.45,3.99
				C38.45,239.36,36.66,240.46,34.88,240.04z M36.07,235.02c-0.99-0.24-1.98,0.38-2.22,1.36c-0.24,0.99,0.38,1.98,1.36,2.22
				c0.99,0.24,1.98-0.38,2.22-1.36C37.67,236.25,37.06,235.26,36.07,235.02z"/>
		</g>
		<path class="st6" d="M29.19,243.23c0.28-1.19,1.48-1.92,2.66-1.64l5.01,1.2c0.63,0.15,1.13,0.57,1.42,1.1l1.69,0.4
			c-0.25-1.4-1.3-2.58-2.76-2.93l-5.02-1.19c-1.98-0.47-3.97,0.75-4.44,2.73l-0.51,2.15l6.45,1.54l0.34-1.43l-5.02-1.2L29.19,243.23
			z"/>
	</g>
	<path class="st18" d="M57.5,233.2c0,0-1.69-0.15-2.95,6.96c-0.53,3.03-0.83,6.53-0.99,9.53c-0.22,4.04,2.12-0.15,2.12-0.15
		l2.46-7.81C58.14,241.74,59.58,235.48,57.5,233.2z"/>
	<path class="st18" d="M58.06,212.55c-3.09,6.45-2.3,26.38-2.3,26.38s3.06,10.95,6.19-20.55C62.89,208.93,58.83,210.96,58.06,212.55
		z"/>
	<path class="st12" d="M53.21,265.09l-1.25-1.65l-0.61-1.58l0.04-2.75c0,0,0.41-2.9,0.95-3.94c0.55-1.04,1.22-5.37,1.43-5.88
		c0.21-0.51,1.84-0.47,1.84-0.47s-0.83,3.93-1.32,5.71c-0.49,1.78-0.31,4.57-0.48,5.28c-0.28,1.21-0.84,2.12-0.84,2.12
		s0.1-1.94,0.19-2.45c0.09-0.51-0.53-0.33-0.53-0.33s-0.42,2.65-0.24,3.39c0.18,0.74,0.6,1.33,0.6,1.33L53.21,265.09z"/>
</g>
<path class="st5" d="M260.12,175.01v4.31l-4.85-4.31h-18.87c-1.19,0-2.16-0.97-2.16-2.16V145.9c0-1.19,0.96-2.16,2.16-2.16h30.19
	c1.19,0,2.16,0.97,2.16,2.16v26.96c0,1.19-0.97,2.16-2.16,2.16h-3.23"/>
<g>
	<path class="st6" d="M241.8,168.55c0,0,0-0.71,0-1.08c0-3.57,2.9-6.47,6.47-6.47c1.18,0,5.29,0,6.47,0c3.57,0,6.47,2.9,6.47,6.47
		c0,0.37,0,1.08,0,1.08H241.8z"/>
	<path class="st6" d="M247.19,153.45c0,2.38,1.93,4.31,4.31,4.31c2.38,0,4.31-1.93,4.31-4.31c0-2.38-1.93-4.31-4.31-4.31
		C249.12,149.14,247.19,151.07,247.19,153.45z"/>
</g>
<g>
	<g>
		<g>
			<path class="st3" d="M242.64,87.38c0,1.07-0.88,1.95-1.95,1.95h-64.8c-1.07,0-1.95-0.88-1.95-1.95V71.41l-2.69-3.05l2.69-3.54
				v-2.56c0-1.07,0.88-1.95,1.95-1.95h64.8c1.07,0,1.95,0.88,1.95,1.95V87.38z"/>
			<g>
				<rect x="179" y="64.89" class="st2" width="14.73" height="2.34"/>
				<rect x="195.73" y="64.89" class="st2" width="17.86" height="2.34"/>
				<rect x="215.94" y="64.89" class="st2" width="6.69" height="2.34"/>
				<rect x="179" y="70.58" class="st2" width="23.43" height="2.34"/>
				<rect x="204.1" y="70.58" class="st2" width="3.8" height="2.34"/>
				<rect x="210.25" y="70.58" class="st2" width="27.45" height="2.34"/>
				<rect x="179" y="76.27" class="st2" width="6.02" height="2.34"/>
				<rect x="187.03" y="76.27" class="st2" width="23.76" height="2.34"/>
				<rect x="212.47" y="76.27" class="st2" width="14.18" height="2.34"/>
				<rect x="179" y="81.96" class="st2" width="29.46" height="2.34"/>
				<rect x="210.8" y="81.96" class="st2" width="6.15" height="2.34"/>
				<rect x="219.62" y="81.96" class="st2" width="15.73" height="2.34"/>
			</g>
		</g>
		<g>
			<path class="st3" d="M181.95,108.57c0,1.07,0.88,1.95,1.95,1.95h64.41c1.07,0,1.95-0.88,1.95-1.95v-3.05l2.69-3.05l-2.69-3.54
				v-2.56c0-1.07-0.88-1.95-1.95-1.95h-64.41c-1.08,0-1.95,0.88-1.95,1.95V108.57z"/>
			<g>
				<rect x="233.21" y="101.26" class="st2" width="4.17" height="2.34"/>
				<rect x="218.16" y="101.26" class="st2" width="13.39" height="2.34"/>
				<rect x="188.37" y="101.26" class="st2" width="27.45" height="2.34"/>
			</g>
		</g>
	</g>
	<g>
		<path class="st2" d="M266.61,93.08c-5,0-9.05,4.05-9.05,9.05c0,5,4.05,9.05,9.05,9.05c5,0,9.06-4.05,9.06-9.05
			C275.67,97.14,271.61,93.08,266.61,93.08z"/>
		<path class="st3" d="M269.95,102.64c-0.72-0.35-1.5-0.56-2.29-0.66c0.03-0.19,0.05-0.38,0.08-0.56c0.18-0.11,0.3-0.28,0.31-0.41
			c0.02-0.17,0.04-0.35,0.06-0.52c0.03,0.02,0.06,0.04,0.09,0.05c0.08,0.01,0.16-0.05,0.17-0.14l0.08-0.8
			c0.01-0.08-0.05-0.16-0.14-0.17c-0.03,0-0.06,0-0.09,0.02c0.02-0.15,0.04-0.31,0.05-0.46c0.01-0.21,0.12-0.77-0.29-1.13
			c-0.58-0.57-1.87-0.57-2.45,0c-0.4,0.36-0.3,0.92-0.28,1.13c0.01,0.15,0.03,0.31,0.05,0.46c-0.03-0.01-0.06-0.02-0.09-0.02
			c-0.08,0.01-0.14,0.08-0.14,0.17l0.09,0.8c0.01,0.08,0.08,0.14,0.16,0.14c0.04,0,0.07-0.02,0.1-0.05
			c0.02,0.17,0.04,0.35,0.06,0.52c0.01,0.14,0.14,0.3,0.31,0.41c0.03,0.19,0.05,0.37,0.08,0.56c-0.79,0.09-1.56,0.31-2.29,0.66
			c-0.23,0.12-0.4,0.44-0.37,0.69c0.03,0.28,0.06,0.57,0.08,0.85c0.03,0.25,0.24,0.49,0.47,0.53c1.98,0.32,4,0.32,5.98,0
			c0.23-0.04,0.44-0.29,0.47-0.53c0.03-0.28,0.06-0.57,0.08-0.85C270.35,103.08,270.19,102.77,269.95,102.64z"/>
	</g>
	<g>
		<path class="st3" d="M159.73,59.05c-5,0-9.05,4.05-9.05,9.05s4.05,9.05,9.05,9.05c5,0,9.06-4.05,9.06-9.05
			S164.73,59.05,159.73,59.05z"/>
		<path class="st2" d="M163.07,68.61c-0.72-0.34-1.5-0.56-2.29-0.66c0.03-0.19,0.05-0.37,0.08-0.56c0.18-0.11,0.3-0.28,0.31-0.41
			c0.02-0.18,0.04-0.35,0.06-0.52c0.02,0.03,0.06,0.04,0.09,0.05c0.08,0.01,0.16-0.05,0.17-0.14l0.08-0.8
			c0.01-0.08-0.05-0.16-0.14-0.17c-0.03,0-0.06,0-0.09,0.02c0.02-0.15,0.04-0.31,0.06-0.46c0.01-0.21,0.12-0.77-0.29-1.13
			c-0.58-0.57-1.87-0.57-2.45,0c-0.4,0.36-0.3,0.92-0.29,1.13c0.02,0.15,0.04,0.31,0.05,0.46c-0.03-0.01-0.06-0.02-0.09-0.02
			c-0.08,0.01-0.14,0.08-0.14,0.17l0.08,0.8c0.01,0.08,0.08,0.14,0.16,0.14c0.04,0,0.07-0.02,0.1-0.05
			c0.02,0.17,0.04,0.35,0.06,0.52c0.01,0.14,0.14,0.3,0.31,0.41c0.03,0.19,0.05,0.38,0.08,0.56c-0.79,0.1-1.56,0.31-2.29,0.66
			c-0.23,0.12-0.4,0.44-0.37,0.69c0.03,0.28,0.06,0.57,0.09,0.85c0.03,0.25,0.24,0.49,0.47,0.53c1.98,0.32,4,0.32,5.98,0
			c0.23-0.04,0.45-0.29,0.47-0.53c0.03-0.28,0.06-0.56,0.08-0.85C163.47,69.05,163.3,68.73,163.07,68.61z"/>
	</g>
</g>
<path class="st2" d="M56.51,35.8c-3.58,0-6.47,2.9-6.47,6.47c0,3.58,6.47,11.11,6.47,11.11s6.47-7.53,6.47-11.11
	C62.98,38.7,60.08,35.8,56.51,35.8z M56.49,45.03c-1.53,0-2.78-1.24-2.78-2.78c0-1.53,1.24-2.78,2.78-2.78
	c1.53,0,2.77,1.24,2.77,2.78C59.26,43.78,58.02,45.03,56.49,45.03z"/>
</svg>
