<svg xmlns="http://www.w3.org/2000/svg" xmlns:xlink="http://www.w3.org/1999/xlink" preserveAspectRatio="xMidYMid" width="94.094" height="74.5" viewBox="0 0 94.094 74.5">
  <defs>
    <style>
      .cls-1 {
        fill: #0107ff;
        fill-rule: evenodd;
      }
    </style>
  </defs>
  <path d="M57.937,74.508 L94.085,74.508 L94.085,40.567 L76.701,40.567 L76.701,36.152 C76.701,23.825 81.487,17.664 91.050,17.664 L91.050,0.003 C78.542,0.003 69.022,3.819 62.490,11.455 C55.962,19.086 52.694,29.253 52.694,41.946 C52.694,53.165 54.445,64.022 57.937,74.508 L57.937,74.508 ZM5.784,74.508 L41.932,74.508 L41.932,40.567 L24.272,40.567 L24.272,36.152 C24.272,23.825 29.148,17.664 38.897,17.664 L38.897,0.003 C26.204,0.003 16.546,3.819 9.923,11.455 C3.300,19.086 -0.011,29.253 -0.011,41.946 C-0.011,52.061 1.921,62.918 5.784,74.508 L5.784,74.508 Z" class="cls-1"/>
</svg>
