<svg xmlns="http://www.w3.org/2000/svg" xmlns:xlink="http://www.w3.org/1999/xlink" preserveAspectRatio="xMidYMid" width="95.5" height="75.63" viewBox="0 0 95.5 75.63">
  <defs>
    <style>
      .cls-1 {
        fill: #0107ff;
        fill-rule: evenodd;
      }
    </style>
  </defs>
  <path d="M36.686,0.005 L-0.005,0.005 L-0.005,34.455 L17.641,34.455 L17.641,38.936 C17.641,51.448 12.783,57.702 3.076,57.702 L3.076,75.627 C15.772,75.627 25.435,71.755 32.065,64.004 C38.691,56.258 42.008,45.938 42.008,33.055 C42.008,21.667 40.231,10.648 36.686,0.005 L36.686,0.005 ZM89.622,0.005 L52.931,0.005 L52.931,34.455 L70.857,34.455 L70.857,38.936 C70.857,51.448 65.907,57.702 56.012,57.702 L56.012,75.627 C68.896,75.627 78.699,71.755 85.421,64.004 C92.143,56.258 95.504,45.938 95.504,33.055 C95.504,22.788 93.543,11.768 89.622,0.005 L89.622,0.005 Z" class="cls-1"/>
</svg>
