<svg xmlns="http://www.w3.org/2000/svg" xmlns:xlink="http://www.w3.org/1999/xlink" preserveAspectRatio="xMidYMid" width="41.938" height="33.19" viewBox="0 0 41.938 33.19">
  <defs>
    <style>
      .cls-1 {
        fill: #0107ff;
        fill-rule: evenodd;
      }
    </style>
  </defs>
  <path d="M25.827,33.192 L41.936,33.192 L41.936,18.067 L34.189,18.067 L34.189,16.099 C34.189,10.606 36.322,7.860 40.584,7.860 L40.584,-0.010 C35.010,-0.010 30.767,1.691 27.856,5.093 C24.947,8.494 23.491,13.025 23.491,18.682 C23.491,23.681 24.271,28.519 25.827,33.192 L25.827,33.192 ZM2.586,33.192 L18.695,33.192 L18.695,18.067 L10.825,18.067 L10.825,16.099 C10.825,10.606 12.998,7.860 17.342,7.860 L17.342,-0.010 C11.686,-0.010 7.382,1.691 4.430,5.093 C1.479,8.494 0.003,13.025 0.003,18.682 C0.003,23.189 0.864,28.027 2.586,33.192 L2.586,33.192 Z" class="cls-1"/>
</svg>
