<svg xmlns="http://www.w3.org/2000/svg" xmlns:xlink="http://www.w3.org/1999/xlink" preserveAspectRatio="xMidYMid" width="41.93" height="33.19" viewBox="0 0 41.93 33.19">
  <defs>
    <style>
      .cls-1 {
        fill: #0107ff;
        fill-rule: evenodd;
      }
    </style>
  </defs>
  <path d="M39.348,-0.010 L23.239,-0.010 L23.239,15.238 L31.109,15.238 L31.109,17.083 C31.109,22.657 28.938,25.445 24.592,25.445 L24.592,33.192 C30.248,33.192 34.552,31.490 37.503,28.089 C40.455,24.686 41.930,20.197 41.930,14.623 C41.930,9.785 41.070,4.909 39.348,-0.010 L39.348,-0.010 ZM16.107,-0.010 L-0.002,-0.010 L-0.002,15.238 L7.745,15.238 L7.745,17.083 C7.745,22.657 5.614,25.445 1.350,25.445 L1.350,33.192 C7.007,33.192 11.292,31.490 14.201,28.089 C17.111,24.686 18.566,20.197 18.566,14.623 C18.566,9.868 17.748,4.989 16.107,-0.010 L16.107,-0.010 Z" class="cls-1"/>
</svg>
