<?xml version="1.0" encoding="iso-8859-1"?>
<!-- Generator: Adobe Illustrator 17.0.0, SVG Export Plug-In . SVG Version: 6.00 Build 0)  -->
<!DOCTYPE svg PUBLIC "-//W3C//DTD SVG 1.1//EN" "http://www.w3.org/Graphics/SVG/1.1/DTD/svg11.dtd">
<svg version="1.1" xmlns="http://www.w3.org/2000/svg" xmlns:xlink="http://www.w3.org/1999/xlink" x="0px" y="0px" width="82px"
	 height="64.667px" viewBox="0 0 82 64.667" style="enable-background:new 0 0 82 64.667;" xml:space="preserve">
<g id="Layer_1">
</g>
<g id="Layer_2">
	<g>
		<path style="fill:#F4F7FC;" d="M33.562,53.427c-2.397,0-4.844-0.207-7.344-0.625c-5.105,3.125-11.98,4.688-20.625,4.688
			c2.708-3.332,4.844-6.978,6.406-10.938C5.332,41.449,2,35.251,2,27.958c0-7.082,3.071-13.125,9.219-18.125
			c6.145-5,13.567-7.5,22.266-7.5c8.696,0,16.118,2.5,22.266,7.5c6.145,5,9.219,11.043,9.219,18.125
			c0,7.085-3.074,13.101-9.219,18.047C49.602,50.954,42.207,53.427,33.562,53.427z"/>
		<path style="fill:#0208FE;" d="M82,39.521c0,6.043-2.5,11.304-7.5,15.781c1.25,2.605,2.813,5.054,4.688,7.344
			c-5.313,0-9.897-0.676-13.75-2.031c-3.855,1.46-7.866,2.188-12.031,2.188c-4.375,0-8.594-0.781-12.656-2.344
			c9.063-1.457,16.614-5.234,22.656-11.328c6.04-6.094,9.062-13.149,9.062-21.172c0-1.978-0.21-4.009-0.625-6.094
			C78.613,26.449,82,32.333,82,39.521z"/>
	</g>
</g>
</svg>
