<?xml version="1.0" encoding="iso-8859-1"?>
<!-- Generator: Adobe Illustrator 17.0.0, SVG Export Plug-In . SVG Version: 6.00 Build 0)  -->
<!DOCTYPE svg PUBLIC "-//W3C//DTD SVG 1.1//EN" "http://www.w3.org/Graphics/SVG/1.1/DTD/svg11.dtd">
<svg version="1.1" xmlns="http://www.w3.org/2000/svg" xmlns:xlink="http://www.w3.org/1999/xlink" x="0px" y="0px"
	 width="220.596px" height="200px" viewBox="0 0 220.596 200" style="enable-background:new 0 0 220.596 200;" xml:space="preserve"
	>
<g id="Layer_1">
</g>
<g id="Layer_2">
	<g>
		<path style="opacity:0.8;fill:#E8EBEF;" d="M195.194,173.412c-26.465,25.962-74.546,33.66-133.293,11.301
			c-15.809-6.018-27.703-13.303-36.498-21.353c-47.879-43.774-4.196-109.988,0-116.086c0.201-0.302,0.312-0.453,0.312-0.453
			c2.315-2.767,4.669-5.394,7.064-7.889c49.61-51.673,116.881-46.4,155.573,0c2.395,2.868,4.679,5.897,6.843,9.077
			c6.642,9.771,12.156,20.991,16.211,33.55C223.783,119.877,216.488,152.552,195.194,173.412z"/>
		<path style="fill:#F4F7FC;" d="M25.403,38.931v124.428c3.361,3.069,7.165,6.038,11.472,8.855
			c6.974,4.569,15.255,8.775,25.026,12.498c11.623,4.428,22.823,7.678,33.53,9.831c43.391,8.765,78.531-0.302,99.764-21.132V38.931
			H25.403z"/>
		<path style="fill:#2D3B5B;" d="M25.398,46.555h169.799V28.437c0-3.335-2.622-6.039-5.855-6.039H31.253
			c-3.233,0-5.855,2.704-5.855,6.039V46.555z M25.398,46.555"/>
		<path style="fill:#0000FF;" d="M77.871,129.287l-11.718,17.564l-11.718-17.564c-9.687,0-17.564,7.878-17.564,17.564v25.368
			c6.986,4.558,15.26,8.77,25.021,12.486c11.643,4.434,22.841,7.68,33.543,9.835v-47.688
			C95.435,137.165,87.557,129.287,77.871,129.287z"/>
		<polygon style="fill:#FFDAAA;" points="54.471,129.286 66.182,146.851 77.892,129.286 		"/>
		<path style="fill:#6C99FE;" d="M66.153,161.514c-1.189,0.007-2.264-0.706-2.72-1.806c-0.456-1.098-0.203-2.363,0.642-3.201
			c0.28-0.264,0.607-0.473,0.966-0.614c0.706-0.323,1.518-0.323,2.224,0c0.355,0.149,0.682,0.357,0.966,0.614
			c0.845,0.838,1.098,2.103,0.642,3.201C68.417,160.808,67.342,161.521,66.153,161.514L66.153,161.514z M66.153,161.514"/>
		<path style="fill:#80A1FF;" d="M66.153,174.115c-1.38-0.014-2.559-0.999-2.817-2.355c-0.259-1.355,0.473-2.704,1.751-3.226
			c1.276-0.522,2.745-0.071,3.509,1.078c0.763,1.149,0.612,2.678-0.364,3.654C67.67,173.801,66.927,174.104,66.153,174.115
			L66.153,174.115z M66.153,174.115"/>
		<path style="fill:#FFDAAA;" d="M66.153,85.015h17.565v17.565c0,9.7-7.865,17.565-17.565,17.565s-17.565-7.865-17.565-17.565
			C48.587,92.88,56.452,85.015,66.153,85.015L66.153,85.015z M66.153,85.015"/>
		<path style="fill:#2C3042;" d="M66.153,85.015c-5.538,0.003-10.75,2.617-14.065,7.054c-3.313,4.437-4.341,10.177-2.772,15.489
			c5.546-6.845,13.882-10.824,22.692-10.833h11.71v-11.71H66.153z M66.153,85.015"/>
		<path style="fill:#6C99FE;" d="M44.945,34.481c0,2.582-2.095,4.677-4.677,4.677c-2.592,0-4.687-2.095-4.687-4.677
			c0-2.592,2.095-4.687,4.687-4.687C42.85,29.795,44.945,31.889,44.945,34.481L44.945,34.481z M44.945,34.481"/>
		<path style="fill:#1BA57A;" d="M58.986,34.481c0,2.582-2.095,4.677-4.677,4.677c-2.59,0-4.687-2.095-4.687-4.677
			c0-2.592,2.097-4.687,4.687-4.687C56.891,29.795,58.986,31.889,58.986,34.481L58.986,34.481z M58.986,34.481"/>
		<path style="fill:#F9AC46;" d="M73.027,34.481c0,2.582-2.095,4.677-4.677,4.677c-2.582,0-4.677-2.095-4.677-4.677
			c0-2.592,2.095-4.687,4.677-4.687C70.932,29.795,73.027,31.889,73.027,34.481L73.027,34.481z M73.027,34.481"/>
		<g>
			<path style="fill:#0000FF;" d="M165.528,119.91l-6.452,6.448c-0.343,0.343-0.806,0.536-1.287,0.536h-0.026
				c-0.488-0.007-0.959-0.211-1.298-0.565l-6.215-6.528c-0.503-0.529-0.645-1.309-0.354-1.979c0.288-0.667,0.948-1.101,1.673-1.101
				h0.011l12.667,0.077c0.736,0.007,1.396,0.452,1.677,1.134C166.203,118.609,166.046,119.389,165.528,119.91z"/>
		</g>
		<path style="fill:#0000FF;" d="M184.522,114.836c0,2.712-2.199,4.911-4.911,4.911h-43.412c-2.712,0-4.911-2.199-4.911-4.911
			V83.617c0-2.712,2.199-4.911,4.911-4.911h43.412c2.713,0,4.911,2.199,4.911,4.911V114.836z"/>
		<g>
			<path style="fill:#6C99FE;" d="M130.755,108.571l-6.452,6.448c-0.343,0.343-0.806,0.536-1.287,0.536h-0.026
				c-0.488-0.007-0.959-0.211-1.298-0.565l-6.215-6.528c-0.503-0.529-0.645-1.309-0.354-1.979c0.288-0.667,0.948-1.101,1.673-1.101
				h0.011l12.667,0.077c0.736,0.007,1.396,0.452,1.677,1.134C131.429,107.269,131.272,108.049,130.755,108.571z"/>
		</g>
		<path style="fill:#FFFFFF;" d="M157.906,93.17c0.998-2.26,3.213-4.344,5.872-4.344c3.581,0,6.159,2.916,6.487,6.392
			c0,0,0.172,0.863-0.212,2.411c-0.524,2.114-1.755,3.995-3.42,5.428l-8.727,7.465l-8.727-7.465
			c-1.665-1.432-2.895-3.314-3.42-5.428c-0.389-1.548-0.213-2.411-0.213-2.411c0.323-3.476,2.906-6.392,6.488-6.392
			C154.692,88.826,156.901,90.91,157.906,93.17L157.906,93.17z M157.906,93.17"/>
		<path style="fill:#6C99FE;" d="M149.748,103.497c0,2.713-2.199,4.911-4.911,4.911h-43.412c-2.712,0-4.911-2.199-4.911-4.911
			V72.278c0-2.713,2.199-4.911,4.911-4.911h43.412c2.712,0,4.911,2.199,4.911,4.911V103.497z"/>
		<g>
			<rect x="109.388" y="82.156" style="fill:#FFFFFF;" width="6.424" height="17.258"/>
			<path style="fill:#FFFFFF;" d="M136.874,86.172v9.485c0,2.218-1.799,4.017-4.017,4.017h-13.714V76.101h1.209
				c2.676,0,4.845,2.165,4.845,4.841v1.213h7.66C135.075,82.155,136.874,83.953,136.874,86.172z"/>
		</g>
	</g>
</g>
<g id="Layer_3">
</g>
</svg>
