<?xml version="1.0" encoding="UTF-8"?>
<svg width="151px" height="25px" viewBox="0 0 151 25" version="1.1" xmlns="http://www.w3.org/2000/svg" xmlns:xlink="http://www.w3.org/1999/xlink">
    <title>Logo-white</title>
    <g id="Desktop" stroke="none" stroke-width="1" fill="none" fill-rule="evenodd">
        <g id="Home" transform="translate(-154.000000, -8790.000000)" fill="#FFFFFF" fill-rule="nonzero">
            <path d="M163.17119,8808.75 C164.291707,8808.75 165.363506,8808.61546 166.386587,8808.34638 C167.409668,8808.0773 168.310954,8807.69814 169.090444,8807.2089 C169.845575,8806.76859 170.22314,8806.09589 170.22314,8805.1908 C170.22314,8804.55479 170.070896,8804.02886 169.766408,8803.61301 C169.46192,8803.19716 169.078264,8802.98924 168.615442,8802.98924 C168.298774,8802.98924 168.006465,8803.04428 167.738515,8803.15435 C167.470566,8803.26443 167.10518,8803.42955 166.642357,8803.64971 C166.082099,8803.94325 165.607097,8804.15729 165.217352,8804.29183 C164.827607,8804.42637 164.376964,8804.49364 163.865423,8804.49364 C162.501315,8804.49364 161.459965,8804.05333 160.741373,8803.1727 C160.02278,8802.29207 159.663484,8801.02006 159.663484,8799.35665 C159.663484,8797.69325 160.02278,8796.42735 160.741373,8795.55895 C161.459965,8794.69056 162.501315,8794.25636 163.865423,8794.25636 C164.376964,8794.25636 164.833696,8794.32975 165.235621,8794.47652 C165.637546,8794.62329 166.094278,8794.83121 166.605819,8795.10029 C167.068641,8795.32045 167.440117,8795.48557 167.720246,8795.59565 C168.000375,8795.70572 168.298774,8795.76076 168.615442,8795.76076 C169.102623,8795.76076 169.492368,8795.55895 169.784677,8795.15533 C170.076986,8794.75171 170.22314,8794.2319 170.22314,8793.59589 C170.22314,8792.6908 169.845575,8792.00587 169.090444,8791.5411 C168.310954,8791.05186 167.427937,8790.6727 166.441395,8790.40362 C165.454853,8790.13454 164.4744,8790 163.500037,8790 C161.624389,8790 159.967972,8790.39139 158.530787,8791.17417 C157.093602,8791.95695 155.979174,8793.06385 155.187505,8794.49486 C154.395835,8795.92588 154,8797.58317 154,8799.46673 C154,8801.35029 154.371476,8802.98924 155.114427,8804.38356 C155.857379,8805.77789 156.923088,8806.85421 158.311555,8807.61252 C159.700022,8808.37084 161.3199,8808.75 163.17119,8808.75 Z M175.368253,8808.75 C176.111901,8808.75 176.733544,8808.52821 177.233183,8808.08462 C177.732821,8807.64103 177.98264,8806.98797 177.98264,8806.12544 L177.98264,8806.12544 L177.98264,8799.06502 C177.98264,8797.90676 178.267318,8796.95798 178.836673,8796.21867 C179.406028,8795.47936 180.329778,8795.03577 181.607923,8794.88791 L181.607923,8794.88791 L182.653677,8794.77701 C183.606476,8794.67843 184.268787,8794.432 184.640611,8794.0377 C185.012435,8793.6434 185.198347,8793.03963 185.198347,8792.22638 C185.198347,8791.46243 184.995006,8790.88946 184.588324,8790.50748 C184.181641,8790.12551 183.629715,8789.95916 182.932545,8790.00845 L182.932545,8790.00845 L182.444527,8790.04541 C181.44525,8790.11935 180.5215,8790.43971 179.673277,8791.00652 C178.825053,8791.57333 178.191791,8792.38657 177.773489,8793.44625 L177.773489,8793.44625 L177.773489,8792.44818 C177.773489,8791.68422 177.541099,8791.08661 177.076319,8790.65535 C176.611539,8790.22408 176.030565,8790.00845 175.333395,8790.00845 C174.612986,8790.00845 173.997153,8790.23024 173.485895,8790.67383 C172.974637,8791.11742 172.719008,8791.74583 172.719008,8792.55907 L172.719008,8792.55907 L172.719008,8806.12544 C172.719008,8806.98797 172.968827,8807.64103 173.468466,8808.08462 C173.968104,8808.52821 174.601367,8808.75 175.368253,8808.75 Z M212.478085,8808.75 C213.261483,8808.75 213.902445,8808.52898 214.400971,8808.08694 C214.899497,8807.64489 215.14876,8806.99411 215.14876,8806.13458 L215.14876,8806.13458 L215.14876,8797.62525 C215.14876,8794.92387 214.638365,8792.97765 213.617573,8791.78659 C212.596781,8790.59553 211.136812,8790 209.237665,8790 C207.955741,8790 206.810318,8790.30083 205.801396,8790.9025 C204.792474,8791.50417 204.01501,8792.32073 203.469006,8793.35216 C202.994219,8792.17338 202.323582,8791.31999 201.457097,8790.79199 C200.590611,8790.264 199.528275,8790 198.27009,8790 C197.106863,8790 196.068267,8790.24558 195.154302,8790.73674 C194.240338,8791.2279 193.498483,8791.94008 192.928739,8792.87328 L192.928739,8792.87328 L192.928739,8792.50491 C192.928739,8791.74361 192.691346,8791.14808 192.216559,8790.71832 C191.741772,8790.28856 191.148289,8790.07367 190.436109,8790.07367 C189.67645,8790.07367 189.029553,8790.2947 188.495418,8790.73674 C187.961282,8791.17878 187.694215,8791.80501 187.694215,8792.61542 L187.694215,8792.61542 L187.694215,8806.13458 C187.694215,8806.99411 187.955348,8807.64489 188.477613,8808.08694 C188.999879,8808.52898 189.640841,8808.75 190.4005,8808.75 C191.160158,8808.75 191.795186,8808.52898 192.305581,8808.08694 C192.815977,8807.64489 193.071175,8806.99411 193.071175,8806.13458 L193.071175,8806.13458 L193.071175,8798.39882 C193.071175,8797.12181 193.367917,8796.12721 193.9614,8795.41503 C194.554884,8794.70285 195.350152,8794.34676 196.347204,8794.34676 C197.154341,8794.34676 197.75376,8794.5862 198.145459,8795.06508 C198.537158,8795.54396 198.733007,8796.37279 198.733007,8797.55157 L198.733007,8797.55157 L198.733007,8806.13458 C198.733007,8806.99411 198.99414,8807.64489 199.516406,8808.08694 C200.038671,8808.52898 200.679633,8808.75 201.439292,8808.75 C202.22269,8808.75 202.863652,8808.52898 203.362179,8808.08694 C203.860705,8807.64489 204.109968,8806.99411 204.109968,8806.13458 L204.109968,8806.13458 L204.109968,8798.39882 C204.109968,8797.12181 204.406709,8796.12721 205.000193,8795.41503 C205.593676,8794.70285 206.388944,8794.34676 207.385997,8794.34676 C208.193134,8794.34676 208.792552,8794.5862 209.184251,8795.06508 C209.575951,8795.54396 209.7718,8796.37279 209.7718,8797.55157 L209.7718,8797.55157 L209.7718,8806.13458 C209.7718,8806.99411 210.032933,8807.64489 210.555198,8808.08694 C211.077464,8808.52898 211.718426,8808.75 212.478085,8808.75 Z M227.948996,8815 C231.110429,8815 233.511216,8814.26435 235.151358,8812.79305 C236.791499,8811.32176 237.61157,8809.15099 237.61157,8806.28075 L237.61157,8806.28075 L237.61157,8792.6411 C237.61157,8791.86927 237.367926,8791.24819 236.880638,8790.77786 C236.393349,8790.30753 235.745612,8790.07236 234.937426,8790.07236 C234.12924,8790.07236 233.481503,8790.29547 232.994215,8790.74168 C232.506926,8791.18789 232.263282,8791.79691 232.263282,8792.56874 L232.263282,8792.56874 L232.263282,8792.93054 C231.740338,8792.01399 230.985636,8791.29643 229.999174,8790.77786 C229.012712,8790.25929 227.913341,8790 226.701063,8790 C225.179772,8790 223.830815,8790.36782 222.654191,8791.10347 C221.477568,8791.83912 220.556474,8792.87627 219.890909,8794.21491 C219.225344,8795.55355 218.892562,8797.10323 218.892562,8798.86397 C218.892562,8800.6247 219.225344,8802.17438 219.890909,8803.51302 C220.556474,8804.85166 221.477568,8805.88278 222.654191,8806.60637 C223.830815,8807.32996 225.179772,8807.69175 226.701063,8807.69175 C227.937111,8807.69175 229.054309,8807.42644 230.052656,8806.8958 C231.051004,8806.36517 231.799764,8805.64158 232.298937,8804.72504 L232.298937,8804.72504 L232.298937,8806.67873 C232.298937,8808.10178 231.9305,8809.16305 231.193625,8809.86252 C230.456749,8810.56199 229.327666,8810.91172 227.806375,8810.91172 C227.0695,8810.91172 226.380165,8810.8273 225.738371,8810.65847 C225.096576,8810.48963 224.395356,8810.26049 223.634711,8809.97106 C223.254388,8809.82634 222.88595,8809.69971 222.529398,8809.59117 C222.172845,8809.48263 221.863833,8809.42836 221.602361,8809.42836 C221.126958,8809.42836 220.746635,8809.62132 220.461393,8810.00724 C220.176151,8810.39315 220.03353,8810.8876 220.03353,8811.49059 C220.03353,8811.92475 220.152381,8812.31669 220.390083,8812.66643 C220.627784,8813.01616 220.960567,8813.31163 221.38843,8813.55282 C223.099882,8814.51761 225.286738,8815 227.948996,8815 Z M228.013127,8795 C229.304147,8795 230.30895,8795.38851 231.027537,8796.16554 C231.746124,8796.94257 232.105417,8798.01802 232.105417,8799.39189 C232.105417,8800.76577 231.746124,8801.83559 231.027537,8802.60135 C230.30895,8803.36712 229.304147,8803.75 228.013127,8803.75 C226.722106,8803.75 225.711213,8803.36712 224.980447,8802.60135 C224.249681,8801.83559 223.884298,8800.76577 223.884298,8799.39189 C223.884298,8798.01802 224.249681,8796.94257 224.980447,8796.16554 C225.711213,8795.38851 226.722106,8795 228.013127,8795 Z M262.102191,8795.09032 C262.327078,8794.96199 262.601469,8794.96855 262.819992,8795.11 L262.819992,8795.11 L268.477537,8798.75566 C268.684037,8798.88909 268.809917,8799.12241 268.809917,8799.37396 C268.809917,8799.62551 268.684037,8799.85884 268.477537,8799.99227 L268.477537,8799.99227 L262.819992,8803.63792 C262.705427,8803.71157 262.575303,8803.74875 262.44518,8803.74875 C262.327078,8803.74875 262.209684,8803.71813 262.102191,8803.65761 C261.877303,8803.52855 261.737986,8803.28502 261.737986,8803.01962 L261.737986,8803.01962 L261.737986,8795.72831 C261.737986,8795.4629 261.877303,8795.21937 262.102191,8795.09032 Z M244.004617,8808.75 C244.748265,8808.75 245.369908,8808.52821 245.869546,8808.08462 C246.369184,8807.64103 246.619004,8806.98797 246.619004,8806.12544 L246.619004,8806.12544 L246.619004,8799.06502 C246.619004,8797.90676 246.903681,8796.95798 247.473037,8796.21867 C248.042392,8795.47936 248.966142,8795.03577 250.244286,8794.88791 L250.244286,8794.88791 L251.290041,8794.77701 C252.24284,8794.67843 252.905151,8794.432 253.276975,8794.0377 C253.648799,8793.6434 253.834711,8793.03963 253.834711,8792.22638 C253.834711,8791.46243 253.63137,8790.88946 253.224687,8790.50748 C252.818005,8790.12551 252.266079,8789.95916 251.568909,8790.00845 L251.568909,8790.00845 L251.08089,8790.04541 C250.081613,8790.11935 249.157864,8790.43971 248.30964,8791.00652 C247.461417,8791.57333 246.828155,8792.38657 246.409853,8793.44625 L246.409853,8793.44625 L246.409853,8792.44818 C246.409853,8791.68422 246.177463,8791.08661 245.712683,8790.65535 C245.247903,8790.22408 244.666928,8790.00845 243.969759,8790.00845 C243.24935,8790.00845 242.633516,8790.23024 242.122259,8790.67383 C241.611001,8791.11742 241.355372,8791.74583 241.355372,8792.55907 L241.355372,8792.55907 L241.355372,8806.12544 C241.355372,8806.98797 241.605191,8807.64103 242.104829,8808.08462 C242.604468,8808.52821 243.23773,8808.75 244.004617,8808.75 Z M264.442149,8808.75 C266.31405,8808.75 267.957962,8808.36473 269.373887,8807.59418 C270.789812,8806.82363 271.881755,8805.73508 272.649714,8804.32852 C273.417673,8802.92197 273.801653,8801.26468 273.801653,8799.35665 C273.801653,8797.44863 273.417673,8795.79134 272.649714,8794.38478 C271.881755,8792.97823 270.789812,8791.89579 269.373887,8791.13748 C267.957962,8790.37916 266.31405,8790 264.442149,8790 C262.570248,8790 260.926335,8790.37916 259.51041,8791.13748 C258.094485,8791.89579 257.002543,8792.97823 256.234584,8794.38478 C255.466624,8795.79134 255.082645,8797.44863 255.082645,8799.35665 C255.082645,8801.26468 255.466624,8802.92197 256.234584,8804.32852 C257.002543,8805.73508 258.094485,8806.82363 259.51041,8807.59418 C260.926335,8808.36473 262.570248,8808.75 264.442149,8808.75 Z M296.345264,8808.75 C296.87197,8808.75 297.374735,8808.60795 297.853558,8808.32386 C298.332382,8808.03977 298.679529,8807.62599 298.895,8807.08251 L298.895,8807.08251 L304.784529,8793.44615 C304.928176,8793.07559 305,8792.74209 305,8792.44565 C305,8791.75395 304.736647,8791.17342 304.209941,8790.70405 C303.683235,8790.23468 303.084706,8790 302.414353,8790 C301.983412,8790 301.576412,8790.13587 301.193353,8790.40761 C300.810294,8790.67935 300.511029,8791.0746 300.295559,8791.59338 L300.295559,8791.59338 L296.488911,8801.56126 L292.502705,8791.66749 C292.287235,8791.12401 291.964029,8790.7164 291.533088,8790.44466 C291.102146,8790.17292 290.635293,8790.03706 290.132529,8790.03706 C289.629764,8790.03706 289.168896,8790.1791 288.749926,8790.46319 C288.330955,8790.74728 288.013734,8791.14872 287.798264,8791.66749 L287.798264,8791.66749 L283.883881,8801.56126 L280.041322,8791.59338 C279.825852,8791.0746 279.520602,8790.67935 279.125572,8790.40761 C278.730543,8790.13587 278.293616,8790 277.814793,8790 C277.096557,8790 276.456131,8790.23468 275.893513,8790.70405 C275.330896,8791.17342 275.049587,8791.75395 275.049587,8792.44565 C275.049587,8792.7668 275.12141,8793.1003 275.265057,8793.44615 L275.265057,8793.44615 L281.118675,8807.08251 C281.334146,8807.62599 281.681293,8808.03977 282.160117,8808.32386 C282.63894,8808.60795 283.153675,8808.75 283.704322,8808.75 C284.278911,8808.75 284.793646,8808.60795 285.248528,8808.32386 C285.703411,8808.03977 286.038587,8807.62599 286.254058,8807.08251 L286.254058,8807.08251 L289.95297,8797.85573 L293.795529,8807.08251 C294.010999,8807.62599 294.352161,8808.03977 294.819014,8808.32386 C295.285867,8808.60795 295.794617,8808.75 296.345264,8808.75 Z" id="Logo-white"></path>
        </g>
    </g>
</svg>