<?xml version="1.0" encoding="UTF-8"?>
<svg width="157px" height="26px" viewBox="0 0 157 26" version="1.1" xmlns="http://www.w3.org/2000/svg" xmlns:xlink="http://www.w3.org/1999/xlink">
    <title>Logo</title>
    <g id="Desktop" stroke="none" stroke-width="1" fill="none" fill-rule="evenodd">
        <g id="Home" transform="translate(-150.000000, -36.000000)" fill="#0000FF" fill-rule="nonzero">
            <path d="M159.535608,55.5 C160.700649,55.5 161.815036,55.3600783 162.878769,55.0802348 C163.942502,54.8003914 164.879601,54.4060665 165.690064,53.8972603 C166.4752,53.4393346 166.867769,52.739726 166.867769,51.7984344 C166.867769,51.1369863 166.709475,50.5900196 166.392888,50.1575342 C166.0763,49.7250489 165.677401,49.5088063 165.196188,49.5088063 C164.866937,49.5088063 164.563013,49.566047 164.284417,49.6805284 C164.00582,49.7950098 163.625915,49.9667319 163.144703,50.1956947 C162.562182,50.5009785 162.068306,50.7235812 161.663074,50.8635029 C161.257843,51.0034247 160.789293,51.0733855 160.257427,51.0733855 C158.839116,51.0733855 157.756388,50.6154599 157.009242,49.6996086 C156.262096,48.7837573 155.888523,47.4608611 155.888523,45.7309198 C155.888523,44.0009785 156.262096,42.6844423 157.009242,41.7813112 C157.756388,40.87818 158.839116,40.4266145 160.257427,40.4266145 C160.789293,40.4266145 161.264174,40.5029354 161.682069,40.6555773 C162.099965,40.8082192 162.574846,41.0244618 163.106712,41.3043053 C163.587925,41.5332681 163.974161,41.7049902 164.265421,41.8194716 C164.556682,41.933953 164.866937,41.9911937 165.196188,41.9911937 C165.702728,41.9911937 166.107959,41.7813112 166.411883,41.361546 C166.715807,40.9417808 166.867769,40.4011742 166.867769,39.739726 C166.867769,38.7984344 166.4752,38.0861057 165.690064,37.6027397 C164.879601,37.0939335 163.961498,36.6996086 162.935755,36.4197652 C161.910012,36.1399217 160.890601,36 159.877522,36 C157.927345,36 156.20511,36.407045 154.710818,37.221135 C153.216526,38.035225 152.057817,39.1863992 151.23469,40.6746575 C150.411563,42.1629159 150,43.8864971 150,45.8454012 C150,47.8043053 150.386236,49.5088063 151.158709,50.9589041 C151.931182,52.409002 153.039238,53.5283757 154.482875,54.3170254 C155.926513,55.1056751 157.610757,55.5 159.535608,55.5 Z M172.217323,55.5 C172.99052,55.5 173.636864,55.2693348 174.156355,54.8080043 C174.675847,54.3466738 174.935593,53.6674928 174.935593,52.7704613 L174.935593,52.7704613 L174.935593,45.4276179 C174.935593,44.2230327 175.231582,43.2362981 175.823561,42.467414 C176.415539,41.6985298 177.375995,41.2371993 178.704926,41.0834225 L178.704926,41.0834225 L179.792234,40.9680899 C180.782892,40.865572 181.471521,40.6092773 181.858119,40.1992058 C182.244717,39.7891342 182.438017,39.1612122 182.438017,38.3154396 C182.438017,37.520926 182.226596,36.9250408 181.803754,36.527784 C181.380912,36.1305272 180.807055,35.9575283 180.082183,36.0087872 L180.082183,36.0087872 L179.574773,36.0472315 C178.53579,36.1241199 177.575334,36.457303 176.693407,37.0467808 C175.811479,37.6362587 175.153054,38.4820312 174.718131,39.5840985 L174.718131,39.5840985 L174.718131,38.5461049 C174.718131,37.7515913 174.476507,37.1300766 173.993259,36.6815609 C173.510011,36.2330451 172.905951,36.0087872 172.181079,36.0087872 C171.432045,36.0087872 170.791742,36.2394525 170.260169,36.700783 C169.728596,37.1621134 169.46281,37.815665 169.46281,38.6614375 L169.46281,38.6614375 L169.46281,52.7704613 C169.46281,53.6674928 169.722556,54.3466738 170.242047,54.8080043 C170.761539,55.2693348 171.419964,55.5 172.217323,55.5 Z M210.801717,55.5 C211.616244,55.5 212.282675,55.2701375 212.80101,54.8104126 C213.319345,54.3506876 213.578512,53.6738703 213.578512,52.7799607 L213.578512,52.7799607 L213.578512,43.9302554 C213.578512,41.1208251 213.047836,39.0967583 211.986483,37.858055 C210.92513,36.6193517 209.407149,36 207.432539,36 C206.099677,36 204.908741,36.3128684 203.859729,36.9386051 C202.810718,37.5643418 202.002362,38.413556 201.434661,39.4862475 C200.941009,38.2603143 200.243725,37.3727898 199.342809,36.8236739 C198.441893,36.274558 197.337346,36 196.029167,36 C194.819718,36 193.739853,36.2554028 192.789572,36.7662083 C191.839291,37.2770138 191.067959,38.0176817 190.475576,38.9882122 L190.475576,38.9882122 L190.475576,38.6051081 C190.475576,37.8133595 190.22875,37.1940079 189.735098,36.747053 C189.241445,36.3000982 188.62438,36.0766208 187.883901,36.0766208 C187.094057,36.0766208 186.421455,36.3064833 185.866096,36.7662083 C185.310737,37.2259332 185.033058,37.8772102 185.033058,38.7200393 L185.033058,38.7200393 L185.033058,52.7799607 C185.033058,53.6738703 185.304567,54.3506876 185.847584,54.8104126 C186.390602,55.2701375 187.057033,55.5 187.846877,55.5 C188.636721,55.5 189.296981,55.2701375 189.827658,54.8104126 C190.358334,54.3506876 190.623672,53.6738703 190.623672,52.7799607 L190.623672,52.7799607 L190.623672,44.7347741 C190.623672,43.4066798 190.932205,42.3722986 191.549271,41.6316306 C192.166336,40.8909627 192.993204,40.5206287 194.029874,40.5206287 C194.869083,40.5206287 195.49232,40.7696464 195.899583,41.2676817 C196.306846,41.7657171 196.510478,42.6277014 196.510478,43.8536346 L196.510478,43.8536346 L196.510478,52.7799607 C196.510478,53.6738703 196.781987,54.3506876 197.325005,54.8104126 C197.868022,55.2701375 198.534453,55.5 199.324297,55.5 C200.138824,55.5 200.805255,55.2701375 201.32359,54.8104126 C201.841925,54.3506876 202.101092,53.6738703 202.101092,52.7799607 L202.101092,52.7799607 L202.101092,44.7347741 C202.101092,43.4066798 202.409625,42.3722986 203.026691,41.6316306 C203.643756,40.8909627 204.470624,40.5206287 205.507294,40.5206287 C206.346504,40.5206287 206.96974,40.7696464 207.377003,41.2676817 C207.784266,41.7657171 207.987898,42.6277014 207.987898,43.8536346 L207.987898,43.8536346 L207.987898,52.7799607 C207.987898,53.6738703 208.259407,54.3506876 208.802425,54.8104126 C209.345442,55.2701375 210.011873,55.5 210.801717,55.5 Z M226.887367,62 C230.17442,62 232.670602,61.2349252 234.375915,59.7047757 C236.081228,58.1746261 236.933884,55.9170285 236.933884,52.9319826 L236.933884,52.9319826 L236.933884,38.7467438 C236.933884,37.9440425 236.680559,37.2981187 236.173908,36.8089725 C235.667257,36.3198263 234.993782,36.0752533 234.153483,36.0752533 C233.313184,36.0752533 232.639709,36.3072841 232.133058,36.7713459 C231.626407,37.2354076 231.373081,37.8687892 231.373081,38.6714906 L231.373081,38.6714906 L231.373081,39.0477569 C230.829359,38.094549 230.044667,37.3482875 229.019008,36.8089725 C227.993349,36.2696575 226.850295,36 225.589847,36 C224.008107,36 222.605549,36.3825374 221.382172,37.1476122 C220.158796,37.9126869 219.201102,38.9913169 218.509091,40.3835022 C217.81708,41.7756874 217.471074,43.3873613 217.471074,45.2185239 C217.471074,47.0496864 217.81708,48.6613603 218.509091,50.0535456 C219.201102,51.4457308 220.158796,52.5180897 221.382172,53.2706223 C222.605549,54.0231548 224.008107,54.3994211 225.589847,54.3994211 C226.87501,54.3994211 228.0366,54.1234925 229.074616,53.5716353 C230.112633,53.0197781 230.891145,52.2672455 231.410153,51.3140376 L231.410153,51.3140376 L231.410153,53.3458755 C231.410153,54.8258562 231.027076,55.9295707 230.260921,56.6570188 C229.494766,57.384467 228.320819,57.748191 226.739079,57.748191 C225.972924,57.748191 225.256198,57.6603956 224.588902,57.4848046 C223.921606,57.3092137 223.192523,57.0709117 222.401653,56.7698987 C222.006218,56.6193922 221.62314,56.487699 221.25242,56.3748191 C220.8817,56.2619392 220.560409,56.2054993 220.288548,56.2054993 C219.794254,56.2054993 219.398819,56.4061746 219.102243,56.8075253 C218.805667,57.208876 218.657379,57.7231066 218.657379,58.3502171 C218.657379,58.8017366 218.780952,59.2093584 219.028099,59.5730825 C219.275246,59.9368066 219.621251,60.2440907 220.066116,60.4949349 C221.845573,61.4983116 224.119323,62 226.887367,62 Z M226.954045,41.2 C228.296365,41.2 229.341094,41.6040541 230.088234,42.4121622 C230.835374,43.2202703 231.208944,44.3387387 231.208944,45.7675676 C231.208944,47.1963964 230.835374,48.309009 230.088234,49.1054054 C229.341094,49.9018018 228.296365,50.3 226.954045,50.3 C225.611726,50.3 224.560665,49.9018018 223.800862,49.1054054 C223.041059,48.309009 222.661157,47.1963964 222.661157,45.7675676 C222.661157,44.3387387 223.041059,43.2202703 223.800862,42.4121622 C224.560665,41.6040541 225.611726,41.2 226.954045,41.2 Z M262.397642,41.2939284 C262.631465,41.1604682 262.916759,41.1672928 263.143965,41.3144024 L263.143965,41.3144024 L269.026313,45.1058863 C269.241019,45.2446547 269.371901,45.4873096 269.371901,45.748922 C269.371901,46.0105344 269.241019,46.2531894 269.026313,46.3919577 L269.026313,46.3919577 L263.143965,50.1834416 C263.024848,50.2600296 262.889554,50.2987027 262.75426,50.2987027 C262.631465,50.2987027 262.509407,50.2668543 262.397642,50.2039156 C262.163819,50.0696971 262.018966,49.816426 262.018966,49.5404059 L262.018966,49.5404059 L262.018966,41.9574381 C262.018966,41.6814181 262.163819,41.4281469 262.397642,41.2939284 Z M243.580959,55.5 C244.354156,55.5 245.0005,55.2693348 245.519992,54.8080043 C246.039483,54.3466738 246.299229,53.6674928 246.299229,52.7704613 L246.299229,52.7704613 L246.299229,45.4276179 C246.299229,44.2230327 246.595218,43.2362981 247.187197,42.467414 C247.779176,41.6985298 248.739631,41.2371993 250.068563,41.0834225 L250.068563,41.0834225 L251.155871,40.9680899 C252.146529,40.865572 252.835157,40.6092773 253.221755,40.1992058 C253.608354,39.7891342 253.801653,39.1612122 253.801653,38.3154396 C253.801653,37.520926 253.590232,36.9250408 253.16739,36.527784 C252.744548,36.1305272 252.170691,35.9575283 251.445819,36.0087872 L251.445819,36.0087872 L250.938409,36.0472315 C249.899426,36.1241199 248.938971,36.457303 248.057043,37.0467808 C247.175116,37.6362587 246.516691,38.4820312 246.081767,39.5840985 L246.081767,39.5840985 L246.081767,38.5461049 C246.081767,37.7515913 245.840143,37.1300766 245.356896,36.6815609 C244.873648,36.2330451 244.269588,36.0087872 243.544716,36.0087872 C242.795682,36.0087872 242.155378,36.2394525 241.623805,36.700783 C241.092233,37.1621134 240.826446,37.815665 240.826446,38.6614375 L240.826446,38.6614375 L240.826446,52.7704613 C240.826446,53.6674928 241.086192,54.3466738 241.605684,54.8080043 C242.125175,55.2693348 242.7836,55.5 243.580959,55.5 Z M264.830579,55.5 C266.77686,55.5 268.486093,55.0993151 269.95828,54.2979452 C271.430467,53.4965753 272.565798,52.3644814 273.364272,50.9016634 C274.162746,49.4388454 274.561983,47.7152642 274.561983,45.7309198 C274.561983,43.7465753 274.162746,42.0229941 273.364272,40.5601761 C272.565798,39.0973581 271.430467,37.9716243 269.95828,37.1829746 C268.486093,36.3943249 266.77686,36 264.830579,36 C262.884298,36 261.175064,36.3943249 259.702877,37.1829746 C258.23069,37.9716243 257.095359,39.0973581 256.296885,40.5601761 C255.498411,42.0229941 255.099174,43.7465753 255.099174,45.7309198 C255.099174,47.7152642 255.498411,49.4388454 256.296885,50.9016634 C257.095359,52.3644814 258.23069,53.4965753 259.702877,54.2979452 C261.175064,55.0993151 262.884298,55.5 264.830579,55.5 Z M298.001368,55.5 C298.549002,55.5 299.071744,55.3522727 299.569594,55.0568182 C300.067444,54.7613636 300.428385,54.3310277 300.652417,53.7658103 L300.652417,53.7658103 L306.775968,39.5839921 C306.925323,39.1986166 307,38.8517787 307,38.5434783 C307,37.8241107 306.726183,37.2203557 306.178548,36.7322134 C305.630913,36.2440711 305.008601,36 304.311612,36 C303.863547,36 303.440375,36.1413043 303.042095,36.423913 C302.643816,36.7065217 302.332659,37.1175889 302.108627,37.6571146 L302.108627,37.6571146 L298.150722,48.0237154 L294.006124,37.7341897 C293.782092,37.1689723 293.446043,36.7450593 292.997978,36.4624506 C292.549914,36.1798419 292.06451,36.0385375 291.541768,36.0385375 C291.019026,36.0385375 290.539846,36.1862648 290.104227,36.4817194 C289.668609,36.7771739 289.338784,37.194664 289.114751,37.7341897 L289.114751,37.7341897 L285.04483,48.0237154 L281.049587,37.6571146 C280.825554,37.1175889 280.508175,36.7065217 280.097449,36.423913 C279.686723,36.1413043 279.232436,36 278.734586,36 C277.987811,36 277.321937,36.2440711 276.736964,36.7322134 C276.151991,37.2203557 275.859504,37.8241107 275.859504,38.5434783 C275.859504,38.8774704 275.934182,39.2243083 276.083536,39.5839921 L276.083536,39.5839921 L282.169748,53.7658103 C282.393781,54.3310277 282.754722,54.7613636 283.252571,55.0568182 C283.750421,55.3522727 284.28561,55.5 284.858137,55.5 C285.455556,55.5 285.990745,55.3522727 286.463702,55.0568182 C286.936659,54.7613636 287.285154,54.3310277 287.509186,53.7658103 L287.509186,53.7658103 L291.355075,44.1699605 L295.350318,53.7658103 C295.57435,54.3310277 295.929068,54.7613636 296.414472,55.0568182 C296.899875,55.3522727 297.42884,55.5 298.001368,55.5 Z" id="Logo"></path>
        </g>
    </g>
</svg>