<?xml version="1.0" encoding="UTF-8"?>
<svg width="664px" height="60px" viewBox="0 0 664 60" version="1.1" xmlns="http://www.w3.org/2000/svg" xmlns:xlink="http://www.w3.org/1999/xlink">
    <title>B6629DBC-51B8-4976-865E-CD3A0026AE50</title>
    <g id="Desktop" stroke="none" stroke-width="1" fill="none" fill-rule="evenodd">
        <g id="Home" transform="translate(-390.000000, -8419.000000)" fill="#FFFFFF" fill-rule="nonzero">
            <g id="Get-starter" transform="translate(390.287500, 8419.590000)">
                <path d="M11.765,46.41 L11.765,29.25 L15.405,29.25 C17.5716667,29.25 19.1533333,30.095 20.15,31.785 L20.15,31.785 L28.08,46.41 L41.21,46.41 L33.93,33.41 C32.37,30.55 30.2683333,28.8383333 27.625,28.275 C31.0916667,27.4516667 33.7783333,25.8375 35.685,23.4325 C37.5916667,21.0275 38.545,18.0916667 38.545,14.625 C38.545,10.075 37.1475,6.5975 34.3525,4.1925 C31.5575,1.7875 27.3866667,0.585 21.84,0.585 L21.84,0.585 L0,0.585 L0,46.41 L11.765,46.41 Z M19.955,20.28 L11.635,20.28 L11.635,9.62 L19.955,9.62 C22.5983333,9.62 24.4941667,10.0425 25.6425,10.8875 C26.7908333,11.7325 27.365,13.1083333 27.365,15.015 C27.365,16.8783333 26.7908333,18.2216667 25.6425,19.045 C24.4941667,19.8683333 22.5983333,20.28 19.955,20.28 L19.955,20.28 Z M61.62,46.93 C63.8733333,46.93 66.1266667,46.5941667 68.38,45.9225 C70.6333333,45.2508333 72.5616667,44.33 74.165,43.16 L74.165,43.16 L71.24,35.555 C69.9833333,36.465 68.5533333,37.18 66.95,37.7 C65.3466667,38.22 63.765,38.48 62.205,38.48 C60.0383333,38.48 58.37,38.025 57.2,37.115 C56.03,36.205 55.2716667,34.71 54.925,32.63 L54.925,32.63 L74.685,32.63 L74.685,30.03 C74.685,24.96 73.3416667,20.9625 70.655,18.0375 C67.9683333,15.1125 64.3283333,13.65 59.735,13.65 C56.6583333,13.65 53.8958333,14.3541667 51.4475,15.7625 C48.9991667,17.1708333 47.0925,19.1425 45.7275,21.6775 C44.3625,24.2125 43.68,27.0833333 43.68,30.29 C43.68,33.67 44.4058333,36.6166667 45.8575,39.13 C47.3091667,41.6433333 49.3783333,43.5716667 52.065,44.915 C54.7516667,46.2583333 57.9366667,46.93 61.62,46.93 Z M65,27.17 L54.795,27.17 C55.2283333,23.3566667 56.9833333,21.45 60.06,21.45 C63.0933333,21.45 64.74,23.3566667 65,27.17 L65,27.17 Z M90.285,46.93 C92.2783333,46.93 93.99,46.4858333 95.42,45.5975 C96.85,44.7091667 97.8683333,43.485 98.475,41.925 L98.475,41.925 L98.475,46.41 L109.33,46.41 L109.33,27.95 C109.33,23.0533333 108.1275,19.4458333 105.7225,17.1275 C103.3175,14.8091667 99.6016667,13.65 94.575,13.65 C92.235,13.65 89.6675,14.0291667 86.8725,14.7875 C84.0775,15.5458333 81.7483333,16.4883333 79.885,17.615 L79.885,17.615 L82.81,25.22 C84.5,24.31 86.3091667,23.5625 88.2375,22.9775 C90.1658333,22.3925 91.8666667,22.1 93.34,22.1 C95.2033333,22.1 96.5033333,22.4141667 97.24,23.0425 C97.9766667,23.6708333 98.345,24.7866667 98.345,26.39 L98.345,26.39 L98.345,27.17 L96.59,27.17 C92.17,27.17 88.66,27.4733333 86.06,28.08 C83.46,28.6866667 81.5641667,29.6725 80.3725,31.0375 C79.1808333,32.4025 78.585,34.2333333 78.585,36.53 C78.585,38.5233333 79.0941667,40.3108333 80.1125,41.8925 C81.1308333,43.4741667 82.5283333,44.7091667 84.305,45.5975 C86.0816667,46.4858333 88.075,46.93 90.285,46.93 Z M93.015,39.195 C92.0183333,39.195 91.2058333,38.87 90.5775,38.22 C89.9491667,37.57 89.635,36.7466667 89.635,35.75 C89.635,34.58 90.22,33.7458333 91.39,33.2475 C92.56,32.7491667 94.5316667,32.5 97.305,32.5 L97.305,32.5 L98.345,32.5 L98.345,33.28 C98.345,35.0133333 97.8466667,36.4325 96.85,37.5375 C95.8533333,38.6425 94.575,39.195 93.015,39.195 Z M128.505,46.93 C130.628333,46.93 132.5675,46.4966667 134.3225,45.63 C136.0775,44.7633333 137.41,43.5716667 138.32,42.055 L138.32,42.055 L138.32,46.41 L149.695,46.41 L149.695,0.585 L138.125,0.585 L138.125,18.2 C137.171667,16.8133333 135.839167,15.7083333 134.1275,14.885 C132.415833,14.0616667 130.541667,13.65 128.505,13.65 C125.731667,13.65 123.2725,14.3216667 121.1275,15.665 C118.9825,17.0083333 117.314167,18.9258333 116.1225,21.4175 C114.930833,23.9091667 114.335,26.8016667 114.335,30.095 C114.335,33.3883333 114.941667,36.3133333 116.155,38.87 C117.368333,41.4266667 119.0475,43.4091667 121.1925,44.8175 C123.3375,46.2258333 125.775,46.93 128.505,46.93 Z M132.015,38.285 C130.065,38.285 128.5375,37.57 127.4325,36.14 C126.3275,34.71 125.775,32.695 125.775,30.095 C125.775,27.5816667 126.316667,25.6533333 127.4,24.31 C128.483333,22.9666667 130.021667,22.295 132.015,22.295 C134.051667,22.295 135.611667,22.9775 136.695,24.3425 C137.778333,25.7075 138.32,27.6683333 138.32,30.225 C138.32,32.825 137.778333,34.8183333 136.695,36.205 C135.611667,37.5916667 134.051667,38.285 132.015,38.285 Z M170.105,58.11 L189.605,14.495 L178.295,14.495 L170.885,32.5 L163.865,14.495 L151.775,14.495 L164.84,44.2 L158.405,58.11 L170.105,58.11 Z M227.89,46.93 C229.19,46.93 230.533333,46.8433333 231.92,46.67 L231.92,46.67 L232.505,38.415 C231.335,38.545 230.273333,38.61 229.32,38.61 C226.156667,38.61 224.575,36.92 224.575,33.54 L224.575,33.54 L224.575,22.945 L232.245,22.945 L232.245,14.43 L224.575,14.43 L224.575,5.135 L213.005,5.135 L213.005,14.43 L207.025,14.43 L207.025,22.945 L213.005,22.945 L213.005,33.475 C213.005,38.0683333 214.185833,41.4591667 216.5475,43.6475 C218.909167,45.8358333 222.69,46.93 227.89,46.93 Z M307.775,58.63 C313.928333,58.63 318.575833,57.265 321.7175,54.535 C324.859167,51.805 326.43,47.7966667 326.43,42.51 L326.43,42.51 L326.43,14.43 L315.055,14.43 L315.055,18.525 C314.101667,17.0083333 312.736667,15.8166667 310.96,14.95 C309.183333,14.0833333 307.233333,13.65 305.11,13.65 C302.336667,13.65 299.866667,14.3108333 297.7,15.6325 C295.533333,16.9541667 293.843333,18.8283333 292.63,21.255 C291.416667,23.6816667 290.81,26.4766667 290.81,29.64 C290.81,32.8033333 291.416667,35.5875 292.63,37.9925 C293.843333,40.3975 295.533333,42.25 297.7,43.55 C299.866667,44.85 302.336667,45.5 305.11,45.5 C307.19,45.5 309.118333,45.0775 310.895,44.2325 C312.671667,43.3875 314.036667,42.25 314.99,40.82 L314.99,40.82 L314.99,43.29 C314.99,45.6733333 314.3725,47.4175 313.1375,48.5225 C311.9025,49.6275 310.006667,50.18 307.45,50.18 C305.543333,50.18 303.5175,49.8983333 301.3725,49.335 C299.2275,48.7716667 297.158333,47.97 295.165,46.93 L295.165,46.93 L292.24,54.795 C294.233333,56.0083333 296.595,56.9508333 299.325,57.6225 C302.055,58.2941667 304.871667,58.63 307.775,58.63 Z M308.62,36.855 C306.67,36.855 305.120833,36.2158333 303.9725,34.9375 C302.824167,33.6591667 302.25,31.8933333 302.25,29.64 C302.25,27.3 302.813333,25.4908333 303.94,24.2125 C305.066667,22.9341667 306.626667,22.295 308.62,22.295 C310.656667,22.295 312.238333,22.945 313.365,24.245 C314.491667,25.545 315.055,27.3433333 315.055,29.64 C315.055,31.8933333 314.491667,33.6591667 313.365,34.9375 C312.238333,36.2158333 310.656667,36.855 308.62,36.855 Z M349.635,46.93 C351.888333,46.93 354.141667,46.5941667 356.395,45.9225 C358.648333,45.2508333 360.576667,44.33 362.18,43.16 L362.18,43.16 L359.255,35.555 C357.998333,36.465 356.568333,37.18 354.965,37.7 C353.361667,38.22 351.78,38.48 350.22,38.48 C348.053333,38.48 346.385,38.025 345.215,37.115 C344.045,36.205 343.286667,34.71 342.94,32.63 L342.94,32.63 L362.7,32.63 L362.7,30.03 C362.7,24.96 361.356667,20.9625 358.67,18.0375 C355.983333,15.1125 352.343333,13.65 347.75,13.65 C344.673333,13.65 341.910833,14.3541667 339.4625,15.7625 C337.014167,17.1708333 335.1075,19.1425 333.7425,21.6775 C332.3775,24.2125 331.695,27.0833333 331.695,30.29 C331.695,33.67 332.420833,36.6166667 333.8725,39.13 C335.324167,41.6433333 337.393333,43.5716667 340.08,44.915 C342.766667,46.2583333 345.951667,46.93 349.635,46.93 Z M353.015,27.17 L342.81,27.17 C343.243333,23.3566667 344.998333,21.45 348.075,21.45 C351.108333,21.45 352.755,23.3566667 353.015,27.17 L353.015,27.17 Z M385.645,46.93 C386.945,46.93 388.288333,46.8433333 389.675,46.67 L389.675,46.67 L390.26,38.415 C389.09,38.545 388.028333,38.61 387.075,38.61 C383.911667,38.61 382.33,36.92 382.33,33.54 L382.33,33.54 L382.33,22.945 L390,22.945 L390,14.43 L382.33,14.43 L382.33,5.135 L370.76,5.135 L370.76,14.43 L364.78,14.43 L364.78,22.945 L370.76,22.945 L370.76,33.475 C370.76,38.0683333 371.940833,41.4591667 374.3025,43.6475 C376.664167,45.8358333 380.445,46.93 385.645,46.93 Z M425.75,46.93 C430.17,46.93 433.6475,46.02 436.1825,44.2 C438.7175,42.38 439.985,39.8883333 439.985,36.725 C439.985,34.0816667 439.226667,31.9908333 437.71,30.4525 C436.193333,28.9141667 433.745,27.7766667 430.365,27.04 L430.365,27.04 L424.97,25.805 C423.886667,25.545 423.128333,25.2741667 422.695,24.9925 C422.261667,24.7108333 422.045,24.3533333 422.045,23.92 C422.045,23.1833333 422.391667,22.62 423.085,22.23 C423.778333,21.84 424.753333,21.645 426.01,21.645 C427.57,21.645 429.2275,21.9375 430.9825,22.5225 C432.7375,23.1075 434.481667,23.9416667 436.215,25.025 L436.215,25.025 L439.205,17.485 C437.341667,16.2716667 435.2725,15.3291667 432.9975,14.6575 C430.7225,13.9858333 428.436667,13.65 426.14,13.65 C423.366667,13.65 420.885833,14.0833333 418.6975,14.95 C416.509167,15.8166667 414.808333,17.0408333 413.595,18.6225 C412.381667,20.2041667 411.775,22.0133333 411.775,24.05 C411.775,26.6933333 412.49,28.73 413.92,30.16 C415.35,31.59 417.69,32.6733333 420.94,33.41 L420.94,33.41 L426.075,34.58 C427.591667,34.9266667 428.599167,35.2516667 429.0975,35.555 C429.595833,35.8583333 429.845,36.2916667 429.845,36.855 C429.845,37.505 429.498333,38.0141667 428.805,38.3825 C428.111667,38.7508333 427.136667,38.935 425.88,38.935 C423.843333,38.935 421.72,38.5991667 419.51,37.9275 C417.3,37.2558333 415.328333,36.3566667 413.595,35.23 L413.595,35.23 L410.67,43.095 C412.446667,44.3516667 414.635,45.305 417.235,45.955 C419.835,46.605 422.673333,46.93 425.75,46.93 Z M462.41,46.93 C463.71,46.93 465.053333,46.8433333 466.44,46.67 L466.44,46.67 L467.025,38.415 C465.855,38.545 464.793333,38.61 463.84,38.61 C460.676667,38.61 459.095,36.92 459.095,33.54 L459.095,33.54 L459.095,22.945 L466.765,22.945 L466.765,14.43 L459.095,14.43 L459.095,5.135 L447.525,5.135 L447.525,14.43 L441.545,14.43 L441.545,22.945 L447.525,22.945 L447.525,33.475 C447.525,38.0683333 448.705833,41.4591667 451.0675,43.6475 C453.429167,45.8358333 457.21,46.93 462.41,46.93 Z M481.39,46.93 C483.383333,46.93 485.095,46.4858333 486.525,45.5975 C487.955,44.7091667 488.973333,43.485 489.58,41.925 L489.58,41.925 L489.58,46.41 L500.435,46.41 L500.435,27.95 C500.435,23.0533333 499.2325,19.4458333 496.8275,17.1275 C494.4225,14.8091667 490.706667,13.65 485.68,13.65 C483.34,13.65 480.7725,14.0291667 477.9775,14.7875 C475.1825,15.5458333 472.853333,16.4883333 470.99,17.615 L470.99,17.615 L473.915,25.22 C475.605,24.31 477.414167,23.5625 479.3425,22.9775 C481.270833,22.3925 482.971667,22.1 484.445,22.1 C486.308333,22.1 487.608333,22.4141667 488.345,23.0425 C489.081667,23.6708333 489.45,24.7866667 489.45,26.39 L489.45,26.39 L489.45,27.17 L487.695,27.17 C483.275,27.17 479.765,27.4733333 477.165,28.08 C474.565,28.6866667 472.669167,29.6725 471.4775,31.0375 C470.285833,32.4025 469.69,34.2333333 469.69,36.53 C469.69,38.5233333 470.199167,40.3108333 471.2175,41.8925 C472.235833,43.4741667 473.633333,44.7091667 475.41,45.5975 C477.186667,46.4858333 479.18,46.93 481.39,46.93 Z M484.12,39.195 C483.123333,39.195 482.310833,38.87 481.6825,38.22 C481.054167,37.57 480.74,36.7466667 480.74,35.75 C480.74,34.58 481.325,33.7458333 482.495,33.2475 C483.665,32.7491667 485.636667,32.5 488.41,32.5 L488.41,32.5 L489.45,32.5 L489.45,33.28 C489.45,35.0133333 488.951667,36.4325 487.955,37.5375 C486.958333,38.6425 485.68,39.195 484.12,39.195 Z M518.505,46.41 L518.505,30.355 C518.505,28.3616667 519.003333,26.8233333 520,25.74 C520.996667,24.6566667 522.751667,23.985 525.265,23.725 L525.265,23.725 L531.57,23.075 L530.92,13.52 L527.735,13.78 C525.308333,13.91 523.25,14.4841667 521.56,15.5025 C519.87,16.5208333 518.656667,18.005 517.92,19.955 L517.92,19.955 L517.92,14.43 L506.935,14.43 L506.935,46.41 L518.505,46.41 Z M551.85,46.93 C553.15,46.93 554.493333,46.8433333 555.88,46.67 L555.88,46.67 L556.465,38.415 C555.295,38.545 554.233333,38.61 553.28,38.61 C550.116667,38.61 548.535,36.92 548.535,33.54 L548.535,33.54 L548.535,22.945 L556.205,22.945 L556.205,14.43 L548.535,14.43 L548.535,5.135 L536.965,5.135 L536.965,14.43 L530.985,14.43 L530.985,22.945 L536.965,22.945 L536.965,33.475 C536.965,38.0683333 538.145833,41.4591667 540.5075,43.6475 C542.869167,45.8358333 546.65,46.93 551.85,46.93 Z M576.94,46.93 C579.193333,46.93 581.446667,46.5941667 583.7,45.9225 C585.953333,45.2508333 587.881667,44.33 589.485,43.16 L589.485,43.16 L586.56,35.555 C585.303333,36.465 583.873333,37.18 582.27,37.7 C580.666667,38.22 579.085,38.48 577.525,38.48 C575.358333,38.48 573.69,38.025 572.52,37.115 C571.35,36.205 570.591667,34.71 570.245,32.63 L570.245,32.63 L590.005,32.63 L590.005,30.03 C590.005,24.96 588.661667,20.9625 585.975,18.0375 C583.288333,15.1125 579.648333,13.65 575.055,13.65 C571.978333,13.65 569.215833,14.3541667 566.7675,15.7625 C564.319167,17.1708333 562.4125,19.1425 561.0475,21.6775 C559.6825,24.2125 559,27.0833333 559,30.29 C559,33.67 559.725833,36.6166667 561.1775,39.13 C562.629167,41.6433333 564.698333,43.5716667 567.385,44.915 C570.071667,46.2583333 573.256667,46.93 576.94,46.93 Z M580.32,27.17 L570.115,27.17 C570.548333,23.3566667 572.303333,21.45 575.38,21.45 C578.413333,21.45 580.06,23.3566667 580.32,27.17 L580.32,27.17 Z M607.945,46.93 C610.068333,46.93 612.0075,46.4966667 613.7625,45.63 C615.5175,44.7633333 616.85,43.5716667 617.76,42.055 L617.76,42.055 L617.76,46.41 L629.135,46.41 L629.135,0.585 L617.565,0.585 L617.565,18.2 C616.611667,16.8133333 615.279167,15.7083333 613.5675,14.885 C611.855833,14.0616667 609.981667,13.65 607.945,13.65 C605.171667,13.65 602.7125,14.3216667 600.5675,15.665 C598.4225,17.0083333 596.754167,18.9258333 595.5625,21.4175 C594.370833,23.9091667 593.775,26.8016667 593.775,30.095 C593.775,33.3883333 594.381667,36.3133333 595.595,38.87 C596.808333,41.4266667 598.4875,43.4091667 600.6325,44.8175 C602.7775,46.2258333 605.215,46.93 607.945,46.93 Z M611.455,38.285 C609.505,38.285 607.9775,37.57 606.8725,36.14 C605.7675,34.71 605.215,32.695 605.215,30.095 C605.215,27.5816667 605.756667,25.6533333 606.84,24.31 C607.923333,22.9666667 609.461667,22.295 611.455,22.295 C613.491667,22.295 615.051667,22.9775 616.135,24.3425 C617.218333,25.7075 617.76,27.6683333 617.76,30.225 C617.76,32.825 617.218333,34.8183333 616.135,36.205 C615.051667,37.5916667 613.491667,38.285 611.455,38.285 Z M651.04,30.94 L651.495,28.405 C651.711667,27.4516667 652.199167,26.5416667 652.9575,25.675 C653.715833,24.8083333 654.831667,23.7466667 656.305,22.49 C657.778333,21.2333333 658.980833,20.1175 659.9125,19.1425 C660.844167,18.1675 661.635,17.0191667 662.285,15.6975 C662.935,14.3758333 663.26,12.9133333 663.26,11.31 C663.26,9.1 662.631667,7.13916667 661.375,5.4275 C660.118333,3.71583333 658.363333,2.38333333 656.11,1.43 C653.856667,0.476666667 651.3,0 648.44,0 C645.45,0 642.470833,0.444166667 639.5025,1.3325 C636.534167,2.22083333 634.183333,3.40166667 632.45,4.875 L632.45,4.875 L636.09,13.325 C638.04,12.0683333 640.011667,11.0716667 642.005,10.335 C643.998333,9.59833333 645.796667,9.23 647.4,9.23 C650.173333,9.23 651.56,10.2916667 651.56,12.415 C651.56,13.3683333 651.321667,14.2241667 650.845,14.9825 C650.368333,15.7408333 649.631667,16.6616667 648.635,17.745 C647.291667,19.175 646.240833,20.5725 645.4825,21.9375 C644.724167,23.3025 644.345,25.0033333 644.345,27.04 L644.345,27.04 L644.345,30.94 L651.04,30.94 Z M653.9,46.41 L653.9,34.58 L641.875,34.58 L641.875,46.41 L653.9,46.41 Z" id="Readytgetstarted?"></path>
                <path d="M254.7125,12.41 C258.2125,12.41 261.286218,13.1177626 263.933654,14.5332877 C266.58109,15.9488128 268.622756,17.9693607 270.058654,20.5949315 C271.494551,23.2205023 272.2125,26.3141096 272.2125,29.8757534 C272.2125,33.4373973 271.494551,36.5310046 270.058654,39.1565753 C268.622756,41.7821461 266.58109,43.8141096 263.933654,45.2524658 C261.286218,46.6908219 258.2125,47.41 254.7125,47.41 C251.2125,47.41 248.138782,46.6908219 245.491346,45.2524658 C242.84391,43.8141096 240.802244,41.7821461 239.366346,39.1565753 C237.930449,36.5310046 237.2125,33.4373973 237.2125,29.8757534 C237.2125,26.3141096 237.930449,23.2205023 239.366346,20.5949315 C240.802244,17.9693607 242.84391,15.9488128 245.491346,14.5332877 C248.138782,13.1177626 251.2125,12.41 254.7125,12.41 Z M249.882,22.5774298 C249.4686,22.8134184 249.2125,23.2587303 249.2125,23.7440402 L249.2125,37.0767309 C249.2125,37.5620409 249.4686,38.0073527 249.882,38.2433414 C250.0796,38.3540027 250.2954,38.41 250.5125,38.41 C250.7517,38.41 250.9909,38.3420033 251.2015,38.2073431 L261.6015,31.5409977 C261.9811,31.2970095 262.2125,30.8703634 262.2125,30.4103856 C262.2125,29.9504077 261.9811,29.5237616 261.6015,29.2797734 L251.2015,22.613428 C250.7998,22.3547738 250.2954,22.3427744 249.882,22.5774298 Z" id="Combined-Shape"></path>
            </g>
        </g>
    </g>
</svg>