<?xml version="1.0" encoding="UTF-8"?>
<svg width="270px" height="85px" viewBox="0 0 270 85" version="1.1" xmlns="http://www.w3.org/2000/svg" xmlns:xlink="http://www.w3.org/1999/xlink">
    <title>Group 8</title>
    <g id="Mobile" stroke="none" stroke-width="1" fill="none" fill-rule="evenodd">
        <g id="Pricing" transform="translate(-59.000000, -2412.000000)" fill="#FFFFFF" fill-rule="nonzero">
            <g id="Group-8" transform="translate(59.864400, 2412.726000)">
                <path d="M46.1682,32.994 L46.1682,20.6388 L48.789,20.6388 C50.349,20.6388 51.4878,21.2472 52.2054,22.464 L52.2054,22.464 L57.915,32.994 L67.3686,32.994 L62.127,23.634 C61.0038,21.5748 59.4906,20.3424 57.5874,19.9368 C60.0834,19.344 62.0178,18.1818 63.3906,16.4502 C64.7634,14.7186 65.4498,12.6048 65.4498,10.1088 C65.4498,6.8328 64.4436,4.329 62.4312,2.5974 C60.4188,0.8658 57.4158,3.55271368e-14 53.4222,3.55271368e-14 L53.4222,3.55271368e-14 L37.6974,3.55271368e-14 L37.6974,32.994 L46.1682,32.994 Z M52.065,14.1804 L46.0746,14.1804 L46.0746,6.5052 L52.065,6.5052 C53.9682,6.5052 55.3332,6.8094 56.16,7.4178 C56.9868,8.0262 57.4002,9.0168 57.4002,10.3896 C57.4002,11.7312 56.9868,12.6984 56.16,13.2912 C55.3332,13.884 53.9682,14.1804 52.065,14.1804 L52.065,14.1804 Z M82.0638,33.3684 C83.6862,33.3684 85.3086,33.1266 86.931,32.643 C88.5534,32.1594 89.9418,31.4964 91.0962,30.654 L91.0962,30.654 L88.9902,25.1784 C88.0854,25.8336 87.0558,26.3484 85.9014,26.7228 C84.747,27.0972 83.6082,27.2844 82.485,27.2844 C80.925,27.2844 79.7238,26.9568 78.8814,26.3016 C78.039,25.6464 77.493,24.57 77.2434,23.0724 L77.2434,23.0724 L91.4706,23.0724 L91.4706,21.2004 C91.4706,17.55 90.5034,14.6718 88.569,12.5658 C86.6346,10.4598 84.0138,9.4068 80.7066,9.4068 C78.4914,9.4068 76.5024,9.9138 74.7396,10.9278 C72.9768,11.9418 71.604,13.3614 70.6212,15.1866 C69.6384,17.0118 69.147,19.0788 69.147,21.3876 C69.147,23.8212 69.6696,25.9428 70.7148,27.7524 C71.76,29.562 73.2498,30.9504 75.1842,31.9176 C77.1186,32.8848 79.4118,33.3684 82.0638,33.3684 Z M84.4974,19.1412 L77.1498,19.1412 C77.4618,16.3956 78.7254,15.0228 80.9406,15.0228 C83.1246,15.0228 84.3102,16.3956 84.4974,19.1412 L84.4974,19.1412 Z M102.7026,33.3684 C104.1378,33.3684 105.3702,33.0486 106.3998,32.409 C107.4294,31.7694 108.1626,30.888 108.5994,29.7648 L108.5994,29.7648 L108.5994,32.994 L116.415,32.994 L116.415,19.7028 C116.415,16.1772 115.5492,13.5798 113.8176,11.9106 C112.086,10.2414 109.4106,9.4068 105.7914,9.4068 C104.1066,9.4068 102.258,9.6798 100.2456,10.2258 C98.2332,10.7718 96.5562,11.4504 95.2146,12.2616 L95.2146,12.2616 L97.3206,17.7372 C98.5374,17.082 99.84,16.5438 101.2284,16.1226 C102.6168,15.7014 103.8414,15.4908 104.9022,15.4908 C106.2438,15.4908 107.1798,15.717 107.7102,16.1694 C108.2406,16.6218 108.5058,17.4252 108.5058,18.5796 L108.5058,18.5796 L108.5058,19.1412 L107.2422,19.1412 C104.0598,19.1412 101.5326,19.3596 99.6606,19.7964 C97.7886,20.2332 96.4236,20.943 95.5656,21.9258 C94.7076,22.9086 94.2786,24.2268 94.2786,25.8804 C94.2786,27.3156 94.6452,28.6026 95.3784,29.7414 C96.1116,30.8802 97.1178,31.7694 98.397,32.409 C99.6762,33.0486 101.1114,33.3684 102.7026,33.3684 Z M104.6682,27.7992 C103.9506,27.7992 103.3656,27.5652 102.9132,27.0972 C102.4608,26.6292 102.2346,26.0364 102.2346,25.3188 C102.2346,24.4764 102.6558,23.8758 103.4982,23.517 C104.3406,23.1582 105.7602,22.9788 107.757,22.9788 L107.757,22.9788 L108.5058,22.9788 L108.5058,23.5404 C108.5058,24.7884 108.147,25.8102 107.4294,26.6058 C106.7118,27.4014 105.7914,27.7992 104.6682,27.7992 Z M130.221,33.3684 C131.7498,33.3684 133.146,33.0564 134.4096,32.4324 C135.6732,31.8084 136.6326,30.9504 137.2878,29.8584 L137.2878,29.8584 L137.2878,32.994 L145.4778,32.994 L145.4778,3.55271368e-14 L137.1474,3.55271368e-14 L137.1474,12.6828 C136.461,11.6844 135.5016,10.8888 134.2692,10.296 C133.0368,9.7032 131.6874,9.4068 130.221,9.4068 C128.2242,9.4068 126.4536,9.8904 124.9092,10.8576 C123.3648,11.8248 122.1636,13.2054 121.3056,14.9994 C120.4476,16.7934 120.0186,18.876 120.0186,21.2472 C120.0186,23.6184 120.4554,25.7244 121.329,27.5652 C122.2026,29.406 123.4116,30.8334 124.956,31.8474 C126.5004,32.8614 128.2554,33.3684 130.221,33.3684 Z M132.7482,27.144 C131.3442,27.144 130.2444,26.6292 129.4488,25.5996 C128.6532,24.57 128.2554,23.1192 128.2554,21.2472 C128.2554,19.4376 128.6454,18.0492 129.4254,17.082 C130.2054,16.1148 131.313,15.6312 132.7482,15.6312 C134.2146,15.6312 135.3378,16.1226 136.1178,17.1054 C136.8978,18.0882 137.2878,19.5 137.2878,21.3408 C137.2878,23.2128 136.8978,24.648 136.1178,25.6464 C135.3378,26.6448 134.2146,27.144 132.7482,27.144 Z M160.173,41.418 L174.213,10.0152 L166.0698,10.0152 L160.7346,22.9788 L155.6802,10.0152 L146.9754,10.0152 L156.3822,31.4028 L151.749,41.418 L160.173,41.418 Z M201.7782,33.3684 C202.7142,33.3684 203.6814,33.306 204.6798,33.1812 L204.6798,33.1812 L205.101,27.2376 C204.2586,27.3312 203.4942,27.378 202.8078,27.378 C200.5302,27.378 199.3914,26.1612 199.3914,23.7276 L199.3914,23.7276 L199.3914,16.0992 L204.9138,16.0992 L204.9138,9.9684 L199.3914,9.9684 L199.3914,3.276 L191.061,3.276 L191.061,9.9684 L186.7554,9.9684 L186.7554,16.0992 L191.061,16.0992 L191.061,23.6808 C191.061,26.988 191.9112,29.4294 193.6116,31.005 C195.312,32.5806 198.0342,33.3684 201.7782,33.3684 Z M12.2148,83.5124 C16.6452,83.5124 19.9914,82.5296 22.2534,80.564 C24.5154,78.5984 25.6464,75.7124 25.6464,71.906 L25.6464,71.906 L25.6464,51.6884 L17.4564,51.6884 L17.4564,54.6368 C16.77,53.5448 15.7872,52.6868 14.508,52.0628 C13.2288,51.4388 11.8248,51.1268 10.296,51.1268 C8.2992,51.1268 6.5208,51.6026 4.9608,52.5542 C3.4008,53.5058 2.184,54.8552 1.3104,56.6024 C0.4368,58.3496 0,60.362 0,62.6396 C0,64.9172 0.4368,66.9218 1.3104,68.6534 C2.184,70.385 3.4008,71.7188 4.9608,72.6548 C6.5208,73.5908 8.2992,74.0588 10.296,74.0588 C11.7936,74.0588 13.182,73.7546 14.4612,73.1462 C15.7404,72.5378 16.7232,71.7188 17.4096,70.6892 L17.4096,70.6892 L17.4096,72.4676 C17.4096,74.1836 16.965,75.4394 16.0758,76.235 C15.1866,77.0306 13.8216,77.4284 11.9808,77.4284 C10.608,77.4284 9.1494,77.2256 7.605,76.82 C6.0606,76.4144 4.5708,75.8372 3.1356,75.0884 L3.1356,75.0884 L1.0296,80.7512 C2.4648,81.6248 4.1652,82.3034 6.1308,82.787 C8.0964,83.2706 10.1244,83.5124 12.2148,83.5124 Z M12.8232,67.8344 C11.4192,67.8344 10.3038,67.3742 9.477,66.4538 C8.6502,65.5334 8.2368,64.262 8.2368,62.6396 C8.2368,60.9548 8.6424,59.6522 9.4536,58.7318 C10.2648,57.8114 11.388,57.3512 12.8232,57.3512 C14.2896,57.3512 15.4284,57.8192 16.2396,58.7552 C17.0508,59.6912 17.4564,60.986 17.4564,62.6396 C17.4564,64.262 17.0508,65.5334 16.2396,66.4538 C15.4284,67.3742 14.2896,67.8344 12.8232,67.8344 Z M42.354,75.0884 C43.9764,75.0884 45.5988,74.8466 47.2212,74.363 C48.8436,73.8794 50.232,73.2164 51.3864,72.374 L51.3864,72.374 L49.2804,66.8984 C48.3756,67.5536 47.346,68.0684 46.1916,68.4428 C45.0372,68.8172 43.8984,69.0044 42.7752,69.0044 C41.2152,69.0044 40.014,68.6768 39.1716,68.0216 C38.3292,67.3664 37.7832,66.29 37.5336,64.7924 L37.5336,64.7924 L51.7608,64.7924 L51.7608,62.9204 C51.7608,59.27 50.7936,56.3918 48.8592,54.2858 C46.9248,52.1798 44.304,51.1268 40.9968,51.1268 C38.7816,51.1268 36.7926,51.6338 35.0298,52.6478 C33.267,53.6618 31.8942,55.0814 30.9114,56.9066 C29.9286,58.7318 29.4372,60.7988 29.4372,63.1076 C29.4372,65.5412 29.9598,67.6628 31.005,69.4724 C32.0502,71.282 33.54,72.6704 35.4744,73.6376 C37.4088,74.6048 39.702,75.0884 42.354,75.0884 Z M44.7876,60.8612 L37.44,60.8612 C37.752,58.1156 39.0156,56.7428 41.2308,56.7428 C43.4148,56.7428 44.6004,58.1156 44.7876,60.8612 L44.7876,60.8612 Z M68.2812,75.0884 C69.2172,75.0884 70.1844,75.026 71.1828,74.9012 L71.1828,74.9012 L71.604,68.9576 C70.7616,69.0512 69.9972,69.098 69.3108,69.098 C67.0332,69.098 65.8944,67.8812 65.8944,65.4476 L65.8944,65.4476 L65.8944,57.8192 L71.4168,57.8192 L71.4168,51.6884 L65.8944,51.6884 L65.8944,44.996 L57.564,44.996 L57.564,51.6884 L53.2584,51.6884 L53.2584,57.8192 L57.564,57.8192 L57.564,65.4008 C57.564,68.708 58.4142,71.1494 60.1146,72.725 C61.815,74.3006 64.5372,75.0884 68.2812,75.0884 Z M97.1568,75.0884 C100.3392,75.0884 102.843,74.4332 104.6682,73.1228 C106.4934,71.8124 107.406,70.0184 107.406,67.7408 C107.406,65.8376 106.86,64.3322 105.768,63.2246 C104.676,62.117 102.9132,61.298 100.4796,60.7676 L100.4796,60.7676 L96.5952,59.8784 C95.8152,59.6912 95.2692,59.4962 94.9572,59.2934 C94.6452,59.0906 94.4892,58.8332 94.4892,58.5212 C94.4892,57.9908 94.7388,57.5852 95.238,57.3044 C95.7372,57.0236 96.4392,56.8832 97.344,56.8832 C98.4672,56.8832 99.6606,57.0938 100.9242,57.515 C102.1878,57.9362 103.4436,58.5368 104.6916,59.3168 L104.6916,59.3168 L106.8444,53.888 C105.5028,53.0144 104.013,52.3358 102.375,51.8522 C100.737,51.3686 99.0912,51.1268 97.4376,51.1268 C95.4408,51.1268 93.6546,51.4388 92.079,52.0628 C90.5034,52.6868 89.2788,53.5682 88.4052,54.707 C87.5316,55.8458 87.0948,57.1484 87.0948,58.6148 C87.0948,60.518 87.6096,61.9844 88.6392,63.014 C89.6688,64.0436 91.3536,64.8236 93.6936,65.354 L93.6936,65.354 L97.3908,66.1964 C98.4828,66.446 99.2082,66.68 99.567,66.8984 C99.9258,67.1168 100.1052,67.4288 100.1052,67.8344 C100.1052,68.3024 99.8556,68.669 99.3564,68.9342 C98.8572,69.1994 98.1552,69.332 97.2504,69.332 C95.784,69.332 94.2552,69.0902 92.664,68.6066 C91.0728,68.123 89.6532,67.4756 88.4052,66.6644 L88.4052,66.6644 L86.2992,72.3272 C87.5784,73.232 89.154,73.9184 91.026,74.3864 C92.898,74.8544 94.9416,75.0884 97.1568,75.0884 Z M123.552,75.0884 C124.488,75.0884 125.4552,75.026 126.4536,74.9012 L126.4536,74.9012 L126.8748,68.9576 C126.0324,69.0512 125.268,69.098 124.5816,69.098 C122.304,69.098 121.1652,67.8812 121.1652,65.4476 L121.1652,65.4476 L121.1652,57.8192 L126.6876,57.8192 L126.6876,51.6884 L121.1652,51.6884 L121.1652,44.996 L112.8348,44.996 L112.8348,51.6884 L108.5292,51.6884 L108.5292,57.8192 L112.8348,57.8192 L112.8348,65.4008 C112.8348,68.708 113.685,71.1494 115.3854,72.725 C117.0858,74.3006 119.808,75.0884 123.552,75.0884 Z M137.2176,75.0884 C138.6528,75.0884 139.8852,74.7686 140.9148,74.129 C141.9444,73.4894 142.6776,72.608 143.1144,71.4848 L143.1144,71.4848 L143.1144,74.714 L150.93,74.714 L150.93,61.4228 C150.93,57.8972 150.0642,55.2998 148.3326,53.6306 C146.601,51.9614 143.9256,51.1268 140.3064,51.1268 C138.6216,51.1268 136.773,51.3998 134.7606,51.9458 C132.7482,52.4918 131.0712,53.1704 129.7296,53.9816 L129.7296,53.9816 L131.8356,59.4572 C133.0524,58.802 134.355,58.2638 135.7434,57.8426 C137.1318,57.4214 138.3564,57.2108 139.4172,57.2108 C140.7588,57.2108 141.6948,57.437 142.2252,57.8894 C142.7556,58.3418 143.0208,59.1452 143.0208,60.2996 L143.0208,60.2996 L143.0208,60.8612 L141.7572,60.8612 C138.5748,60.8612 136.0476,61.0796 134.1756,61.5164 C132.3036,61.9532 130.9386,62.663 130.0806,63.6458 C129.2226,64.6286 128.7936,65.9468 128.7936,67.6004 C128.7936,69.0356 129.1602,70.3226 129.8934,71.4614 C130.6266,72.6002 131.6328,73.4894 132.912,74.129 C134.1912,74.7686 135.6264,75.0884 137.2176,75.0884 Z M139.1832,69.5192 C138.4656,69.5192 137.8806,69.2852 137.4282,68.8172 C136.9758,68.3492 136.7496,67.7564 136.7496,67.0388 C136.7496,66.1964 137.1708,65.5958 138.0132,65.237 C138.8556,64.8782 140.2752,64.6988 142.272,64.6988 L142.272,64.6988 L143.0208,64.6988 L143.0208,65.2604 C143.0208,66.5084 142.662,67.5302 141.9444,68.3258 C141.2268,69.1214 140.3064,69.5192 139.1832,69.5192 Z M163.9404,74.714 L163.9404,63.1544 C163.9404,61.7192 164.2992,60.6116 165.0168,59.8316 C165.7344,59.0516 166.998,58.568 168.8076,58.3808 L168.8076,58.3808 L173.3472,57.9128 L172.8792,51.0332 L170.586,51.2204 C168.8388,51.314 167.3568,51.7274 166.14,52.4606 C164.9232,53.1938 164.0496,54.2624 163.5192,55.6664 L163.5192,55.6664 L163.5192,51.6884 L155.61,51.6884 L155.61,74.714 L163.9404,74.714 Z M187.9488,75.0884 C188.8848,75.0884 189.852,75.026 190.8504,74.9012 L190.8504,74.9012 L191.2716,68.9576 C190.4292,69.0512 189.6648,69.098 188.9784,69.098 C186.7008,69.098 185.562,67.8812 185.562,65.4476 L185.562,65.4476 L185.562,57.8192 L191.0844,57.8192 L191.0844,51.6884 L185.562,51.6884 L185.562,44.996 L177.2316,44.996 L177.2316,51.6884 L172.926,51.6884 L172.926,57.8192 L177.2316,57.8192 L177.2316,65.4008 C177.2316,68.708 178.0818,71.1494 179.7822,72.725 C181.4826,74.3006 184.2048,75.0884 187.9488,75.0884 Z M206.0136,75.0884 C207.636,75.0884 209.2584,74.8466 210.8808,74.363 C212.5032,73.8794 213.8916,73.2164 215.046,72.374 L215.046,72.374 L212.94,66.8984 C212.0352,67.5536 211.0056,68.0684 209.8512,68.4428 C208.6968,68.8172 207.558,69.0044 206.4348,69.0044 C204.8748,69.0044 203.6736,68.6768 202.8312,68.0216 C201.9888,67.3664 201.4428,66.29 201.1932,64.7924 L201.1932,64.7924 L215.4204,64.7924 L215.4204,62.9204 C215.4204,59.27 214.4532,56.3918 212.5188,54.2858 C210.5844,52.1798 207.9636,51.1268 204.6564,51.1268 C202.4412,51.1268 200.4522,51.6338 198.6894,52.6478 C196.9266,53.6618 195.5538,55.0814 194.571,56.9066 C193.5882,58.7318 193.0968,60.7988 193.0968,63.1076 C193.0968,65.5412 193.6194,67.6628 194.6646,69.4724 C195.7098,71.282 197.1996,72.6704 199.134,73.6376 C201.0684,74.6048 203.3616,75.0884 206.0136,75.0884 Z M208.4472,60.8612 L201.0996,60.8612 C201.4116,58.1156 202.6752,56.7428 204.8904,56.7428 C207.0744,56.7428 208.26,58.1156 208.4472,60.8612 L208.4472,60.8612 Z M228.3372,75.0884 C229.866,75.0884 231.2622,74.7764 232.5258,74.1524 C233.7894,73.5284 234.7488,72.6704 235.404,71.5784 L235.404,71.5784 L235.404,74.714 L243.594,74.714 L243.594,41.72 L235.2636,41.72 L235.2636,54.4028 C234.5772,53.4044 233.6178,52.6088 232.3854,52.016 C231.153,51.4232 229.8036,51.1268 228.3372,51.1268 C226.3404,51.1268 224.5698,51.6104 223.0254,52.5776 C221.481,53.5448 220.2798,54.9254 219.4218,56.7194 C218.5638,58.5134 218.1348,60.596 218.1348,62.9672 C218.1348,65.3384 218.5716,67.4444 219.4452,69.2852 C220.3188,71.126 221.5278,72.5534 223.0722,73.5674 C224.6166,74.5814 226.3716,75.0884 228.3372,75.0884 Z M230.8644,68.864 C229.4604,68.864 228.3606,68.3492 227.565,67.3196 C226.7694,66.29 226.3716,64.8392 226.3716,62.9672 C226.3716,61.1576 226.7616,59.7692 227.5416,58.802 C228.3216,57.8348 229.4292,57.3512 230.8644,57.3512 C232.3308,57.3512 233.454,57.8426 234.234,58.8254 C235.014,59.8082 235.404,61.22 235.404,63.0608 C235.404,64.9328 235.014,66.368 234.234,67.3664 C233.454,68.3648 232.3308,68.864 230.8644,68.864 Z M259.3656,63.5756 L259.6932,61.7504 C259.8492,61.064 260.2002,60.4088 260.7462,59.7848 C261.2922,59.1608 262.0956,58.3964 263.1564,57.4916 C264.2172,56.5868 265.083,55.7834 265.7538,55.0814 C266.4246,54.3794 266.994,53.5526 267.462,52.601 C267.93,51.6494 268.164,50.5964 268.164,49.442 C268.164,47.8508 267.7116,46.439 266.8068,45.2066 C265.902,43.9742 264.6384,43.0148 263.016,42.3284 C261.3936,41.642 259.5528,41.2988 257.4936,41.2988 C255.3408,41.2988 253.1958,41.6186 251.0586,42.2582 C248.9214,42.8978 247.2288,43.748 245.9808,44.8088 L245.9808,44.8088 L248.6016,50.8928 C250.0056,49.988 251.4252,49.2704 252.8604,48.74 C254.2956,48.2096 255.5904,47.9444 256.7448,47.9444 C258.7416,47.9444 259.74,48.7088 259.74,50.2376 C259.74,50.924 259.5684,51.5402 259.2252,52.0862 C258.882,52.6322 258.3516,53.2952 257.634,54.0752 C256.6668,55.1048 255.9102,56.111 255.3642,57.0938 C254.8182,58.0766 254.5452,59.3012 254.5452,60.7676 L254.5452,60.7676 L254.5452,63.5756 L259.3656,63.5756 Z M261.4248,74.714 L261.4248,66.1964 L252.7668,66.1964 L252.7668,74.714 L261.4248,74.714 Z" id="Readytgetstarted?"></path>
                <path d="M220.2156,8.634 C222.7356,8.634 224.948677,9.14358904 226.854831,10.1627671 C228.760985,11.1819452 230.230985,12.6367397 231.264831,14.5271507 C232.298677,16.4175616 232.8156,18.6449589 232.8156,21.2093425 C232.8156,23.773726 232.298677,26.0011233 231.264831,27.8915342 C230.230985,29.7819452 228.760985,31.2449589 226.854831,32.2805753 C224.948677,33.3161918 222.7356,33.834 220.2156,33.834 C217.6956,33.834 215.482523,33.3161918 213.576369,32.2805753 C211.670215,31.2449589 210.200215,29.7819452 209.166369,27.8915342 C208.132523,26.0011233 207.6156,23.773726 207.6156,21.2093425 C207.6156,18.6449589 208.132523,16.4175616 209.166369,14.5271507 C210.200215,12.6367397 211.670215,11.1819452 213.576369,10.1627671 C215.482523,9.14358904 217.6956,8.634 220.2156,8.634 Z M216.73764,15.9545494 C216.439992,16.1244612 216.2556,16.4450858 216.2556,16.7945089 L216.2556,26.3940463 C216.2556,26.7434694 216.439992,27.064094 216.73764,27.2340058 C216.879912,27.3136819 217.035288,27.354 217.1916,27.354 C217.363824,27.354 217.536048,27.3050424 217.68768,27.208087 L225.17568,22.4083184 C225.448992,22.2326468 225.6156,21.9254616 225.6156,21.5942776 C225.6156,21.2630936 225.448992,20.9559084 225.17568,20.7802368 L217.68768,15.9804682 C217.398456,15.7942372 217.035288,15.7855976 216.73764,15.9545494 Z" id="Combined-Shape"></path>
            </g>
        </g>
    </g>
</svg>